<svg xmlns="http://www.w3.org/2000/svg" viewBox="0 0 429.25 34.32"><defs><style>.cls-1{fill:lime;}</style></defs><title>Asset 3</title><g id="Layer_2" data-name="Layer 2"><g id="Layer_1-2" data-name="Layer 1"><path class="cls-1" d="M15.3,33V34.1c0,4.25-.77,8.9-6.81,8.9-5.78,0-6.77-4.1-6.77-9V17c0-5.35,2.29-8.3,6.82-8.3,5.6,0,6.61,4,6.61,8.36v1.3H11.54V16.79c0-2.64-.42-4.84-3.06-4.84s-3.13,2-3.13,4.93V34.22c0,3.35.73,5.55,3.24,5.55s3.07-2.26,3.07-5.4V33Z" transform="translate(-1.72 -8.68)"/><path class="cls-1" d="M57.89,17.35V34.19c0,5.86-2.41,8.81-7.39,8.81-5.17,0-7.06-3.3-7.06-8.77V17.36c0-5.68,2.58-8.66,7.3-8.66C55.68,8.7,57.89,12.08,57.89,17.35Zm-10.83-.16V34.52c0,3.76,1.37,5.25,3.61,5.25s3.6-1.45,3.6-5.41V17.19c0-3.54-1.22-5.24-3.63-5.24S47.06,13.55,47.06,17.19Z" transform="translate(-1.72 -8.68)"/><path class="cls-1" d="M103.49,28.61c0-6.12.11-12.72.21-16.29h0c-.83,5.6-3.38,20.3-5.17,30.23H95c-1.35-8.59-4-24.3-4.79-30.26h-.1c.1,3.88.28,11.45.28,17.18V42.55H87.08V9.15h5.27c1.84,9.87,4,22.11,4.48,26.37h0c.52-4.17,3.07-17.08,4.9-26.37h5.16v33.4h-3.45Z" transform="translate(-1.72 -8.68)"/><path class="cls-1" d="M140.44,9.15v33.4h-3.56V9.15Z" transform="translate(-1.72 -8.68)"/><path class="cls-1" d="M170.41,42.55V9.15h4.24c1.8,6.18,6.44,23.69,7,26.42h.08c-.2-4.49-.25-9.19-.25-14.64V9.15h3.35v33.4h-4.1c-1.78-6.27-6.57-24.65-7.2-27.31h-.05c.22,4,.31,9.36.31,15.39V42.55Z" transform="translate(-1.72 -8.68)"/><path class="cls-1" d="M228.1,42.55h-2.83c-.09-.55-.19-2.14-.21-2.89A4.72,4.72,0,0,1,220.14,43c-4.62,0-6.13-3.41-6.13-8.76V17.53c0-5.47,2.21-8.83,7.14-8.83,5.82,0,6.88,4.12,6.88,8.36v.85h-3.55V17c0-2.34-.28-5-3.36-5-2.32,0-3.49,1.47-3.49,5.26V34.43c0,3.29.86,5.39,3.3,5.39,3.06,0,3.59-2.83,3.59-7.09V27.4h-3.71V24.29h7.29Z" transform="translate(-1.72 -8.68)"/><path class="cls-1" d="M291.19,33.14v1.94c0,3.15,1.09,4.83,3.43,4.83S298,38.18,298,34.52c0-3.91-.85-5.43-4.37-8.17s-5.39-4.48-5.39-9.41c0-4.23,1.27-8.29,6.51-8.26,5,0,6.29,3.34,6.29,7.58v1.55h-3.54V16.35c0-2.77-.54-4.56-2.82-4.56s-2.89,2-2.89,4.63c0,3.1.62,4.28,3.69,6.6,4.63,3.5,6.1,5.46,6.1,11,0,4.7-1.34,9-7,9-5.39,0-6.91-3.54-6.91-7.94V33.14Z" transform="translate(-1.72 -8.68)"/><path class="cls-1" d="M344.27,17.35V34.19c0,5.86-2.42,8.81-7.39,8.81-5.18,0-7.07-3.3-7.07-8.77V17.36c0-5.68,2.58-8.66,7.31-8.66C342.05,8.7,344.27,12.08,344.27,17.35Zm-10.83-.16V34.52c0,3.76,1.36,5.25,3.6,5.25s3.6-1.45,3.6-5.41V17.19c0-3.54-1.21-5.24-3.62-5.24S333.44,13.55,333.44,17.19Z" transform="translate(-1.72 -8.68)"/><path class="cls-1" d="M387.27,17.35V34.19c0,5.86-2.42,8.81-7.4,8.81-5.17,0-7.06-3.3-7.06-8.77V17.36c0-5.68,2.58-8.66,7.3-8.66C385.05,8.7,387.27,12.08,387.27,17.35Zm-10.84-.16V34.52c0,3.76,1.37,5.25,3.61,5.25s3.6-1.45,3.6-5.41V17.19c0-3.54-1.22-5.24-3.63-5.24S376.43,13.55,376.43,17.19Z" transform="translate(-1.72 -8.68)"/><path class="cls-1" d="M416.56,42.55V9.15h4.24c1.8,6.18,6.44,23.69,7,26.42h.08c-.2-4.49-.25-9.19-.25-14.64V9.15H431v33.4h-4.1c-1.78-6.27-6.57-24.65-7.2-27.31h-.05c.22,4,.31,9.36.31,15.39V42.55Z" transform="translate(-1.72 -8.68)"/></g></g></svg>