<svg xmlns="http://www.w3.org/2000/svg" viewBox="0 0 749.54 66.03"><defs><style>.cls-1{font-size:12px;font-family:MyriadPro-Regular, Myriad Pro;}.cls-1,.cls-2{fill:lime;}</style></defs><title>Asset 2</title><g id="Layer_2" data-name="Layer 2"><g id="Layer_1-2" data-name="Layer 1"><text class="cls-1" transform="translate(0 48.55)"><tspan xml:space="preserve">     </tspan></text><path class="cls-2" d="M3.48,12.63H7.87V54.76H19.46l-.53,4H3.48Z" transform="translate(-2.67 -12.03)"/><path class="cls-2" d="M55.89,12.63V58.72H51.51V12.63Z" transform="translate(-2.67 -12.03)"/><path class="cls-2" d="M91.86,12.63h15.6v4H96.25V32.37h10.54v4.05H96.25v22.3H91.86Z" transform="translate(-2.67 -12.03)"/><path class="cls-2" d="M155.45,36.1H145.06V54.69h11.75l-.6,4H140.68V12.63h15.37v4h-11V32.07h10.39Z" transform="translate(-2.67 -12.03)"/><path class="cls-2" d="M243.06,36.1H232.67V54.69h11.75l-.61,4H228.29V12.63h15.37v4h-11V32.07h10.39Z" transform="translate(-2.67 -12.03)"/><path class="cls-2" d="M292.57,58.72l-6-19.57h-.07l-6.21,19.57h-4.52l8.23-24-7.75-22.1H281L286.61,30h.07l5.69-17.39H297L289.1,34.18l8.33,24.54Z" transform="translate(-2.67 -12.03)"/><path class="cls-2" d="M329.72,12.63h8c6.74,0,9.89,3.43,9.89,10.71v2.83c0,6.77-1.92,11.89-10.21,11.89h-3.3V58.72h-4.38Zm4.38,21.69H337c5.41,0,6.17-3.35,6.17-8.21V23.59c0-3.82-.86-7.2-5.79-7.2H334.1Z" transform="translate(-2.67 -12.03)"/><path class="cls-2" d="M400.69,23.73V47.36c0,7.93-3.24,12-9.88,12-7.06,0-9.49-4.61-9.49-11.91V23.75c0-7.59,3.36-11.72,9.79-11.72C397.88,12,400.69,16.83,400.69,23.73Zm-14.89-.11V47.71c0,5.5,2,7.63,5.22,7.63,3.38,0,5.2-2.08,5.2-7.88V23.64c0-5.18-1.82-7.61-5.24-7.61S385.8,18.34,385.8,23.62Z" transform="translate(-2.67 -12.03)"/><path class="cls-2" d="M435.72,58.72V12.63H441c2.64,9,9.26,33.5,10.08,37.58h.11c-.25-6.33-.34-12.81-.34-20.31V12.63H455V58.72H449.9c-2.69-9.39-9.41-34.78-10.38-38.86h-.06c.3,5.55.45,13.17.45,21.5V58.72Z" transform="translate(-2.67 -12.03)"/><path class="cls-2" d="M505.71,36.1H495.33V54.69h11.75l-.61,4H490.94V12.63h15.37v4h-11V32.07h10.38Z" transform="translate(-2.67 -12.03)"/><path class="cls-2" d="M540.11,58.72V12.63h5.29c2.64,9,9.26,33.5,10.08,37.58h.11c-.25-6.33-.34-12.81-.34-20.31V12.63h4.16V58.72h-5.12c-2.69-9.39-9.4-34.78-10.37-38.86h-.07c.3,5.55.45,13.17.45,21.5V58.72Z" transform="translate(-2.67 -12.03)"/><path class="cls-2" d="M599.52,16.68h-7.47v-4h19.26v4H603.9v42h-4.38Z" transform="translate(-2.67 -12.03)"/><path class="cls-2" d="M648.12,12.63V58.72h-4.38V12.63Z" transform="translate(-2.67 -12.03)"/><path class="cls-2" d="M688.15,43.45l-2.34,15.27h-4.43L689,12.63h6.27l7.93,46.09h-4.6l-2.5-15.27Zm7.34-4c-1.74-10.7-2.93-18.64-3.35-22.8H692c-.16,3.51-1.87,14-3.19,22.8Z" transform="translate(-2.67 -12.03)"/><path class="cls-2" d="M736.23,12.63h4.38V54.76H752.2l-.53,4H736.23Z" transform="translate(-2.67 -12.03)"/></g></g></svg>