<svg xmlns="http://www.w3.org/2000/svg" xmlns:xlink="http://www.w3.org/1999/xlink" viewBox="0 0 328.75 379.61"><defs><style>.cls-1,.cls-10,.cls-11,.cls-12,.cls-13,.cls-14,.cls-15,.cls-16,.cls-17,.cls-18,.cls-19,.cls-2,.cls-20,.cls-21,.cls-22,.cls-23,.cls-24,.cls-25,.cls-26,.cls-27,.cls-28,.cls-29,.cls-3,.cls-30,.cls-31,.cls-32,.cls-33,.cls-34,.cls-35,.cls-36,.cls-37,.cls-38,.cls-39,.cls-4,.cls-40,.cls-41,.cls-42,.cls-43,.cls-44,.cls-45,.cls-46,.cls-47,.cls-48,.cls-49,.cls-5,.cls-50,.cls-51,.cls-52,.cls-53,.cls-54,.cls-55,.cls-56,.cls-57,.cls-58,.cls-59,.cls-6,.cls-60,.cls-61,.cls-7,.cls-8,.cls-9{fill:none;stroke-miterlimit:10;stroke-width:0.75px;}.cls-1{stroke:url(#linear-gradient);}.cls-2{stroke:url(#linear-gradient-2);}.cls-3{stroke:url(#linear-gradient-3);}.cls-4{stroke:url(#linear-gradient-4);}.cls-5{stroke:url(#linear-gradient-5);}.cls-6{stroke:url(#linear-gradient-6);}.cls-7{stroke:url(#linear-gradient-7);}.cls-8{stroke:url(#linear-gradient-8);}.cls-9{stroke:url(#linear-gradient-9);}.cls-10{stroke:url(#linear-gradient-10);}.cls-11{stroke:url(#linear-gradient-11);}.cls-12{stroke:url(#linear-gradient-12);}.cls-13{stroke:url(#linear-gradient-13);}.cls-14{stroke:url(#linear-gradient-14);}.cls-15{stroke:url(#linear-gradient-15);}.cls-16{stroke:url(#linear-gradient-16);}.cls-17{stroke:url(#linear-gradient-17);}.cls-18{stroke:url(#linear-gradient-18);}.cls-19{stroke:url(#linear-gradient-19);}.cls-20{stroke:url(#linear-gradient-20);}.cls-21{stroke:url(#linear-gradient-21);}.cls-22{stroke:url(#linear-gradient-22);}.cls-23{stroke:url(#linear-gradient-23);}.cls-24{stroke:url(#linear-gradient-24);}.cls-25{stroke:url(#linear-gradient-25);}.cls-26{stroke:url(#linear-gradient-26);}.cls-27{stroke:url(#linear-gradient-27);}.cls-28{stroke:url(#linear-gradient-28);}.cls-29{stroke:url(#linear-gradient-29);}.cls-30{stroke:url(#linear-gradient-30);}.cls-31{stroke:url(#linear-gradient-31);}.cls-32{stroke:url(#linear-gradient-32);}.cls-33{stroke:url(#linear-gradient-33);}.cls-34{stroke:url(#linear-gradient-34);}.cls-35{stroke:url(#linear-gradient-35);}.cls-36{stroke:url(#linear-gradient-36);}.cls-37{stroke:url(#linear-gradient-37);}.cls-38{stroke:url(#linear-gradient-38);}.cls-39{stroke:url(#linear-gradient-39);}.cls-40{stroke:url(#linear-gradient-40);}.cls-41{stroke:url(#linear-gradient-41);}.cls-42{stroke:url(#linear-gradient-42);}.cls-43{stroke:url(#linear-gradient-43);}.cls-44{stroke:url(#linear-gradient-44);}.cls-45{stroke:url(#linear-gradient-45);}.cls-46{stroke:url(#linear-gradient-46);}.cls-47{stroke:url(#linear-gradient-47);}.cls-48{stroke:url(#linear-gradient-48);}.cls-49{stroke:url(#linear-gradient-49);}.cls-50{stroke:url(#linear-gradient-50);}.cls-51{stroke:url(#linear-gradient-51);}.cls-52{stroke:url(#linear-gradient-52);}.cls-53{stroke:url(#linear-gradient-53);}.cls-54{stroke:url(#linear-gradient-54);}.cls-55{stroke:url(#linear-gradient-55);}.cls-56{stroke:url(#linear-gradient-56);}.cls-57{stroke:url(#linear-gradient-57);}.cls-58{stroke:url(#linear-gradient-58);}.cls-59{stroke:url(#linear-gradient-59);}.cls-60{stroke:url(#linear-gradient-60);}.cls-61{stroke:url(#linear-gradient-61);}</style><linearGradient id="linear-gradient" y1="189.8" x2="328.75" y2="189.8" gradientTransform="matrix(0.27, 0.47, -0.47, 0.27, 209.34, 59.99)" gradientUnits="userSpaceOnUse"><stop offset="0" stop-color="lime"/><stop offset="0.01" stop-color="#00de0c"/><stop offset="0.02" stop-color="#00bf17"/><stop offset="0.04" stop-color="#00a321"/><stop offset="0.05" stop-color="#008d29"/><stop offset="0.07" stop-color="#007c30"/><stop offset="0.09" stop-color="#007134"/><stop offset="0.12" stop-color="#006a36"/><stop offset="0.21" stop-color="#006837"/><stop offset="0.23" stop-color="#006334"/><stop offset="0.32" stop-color="#004a27"/><stop offset="0.43" stop-color="#00371d"/><stop offset="0.55" stop-color="#002915"/><stop offset="0.71" stop-color="#002111"/><stop offset="1" stop-color="#001f10"/></linearGradient><linearGradient id="linear-gradient-2" x1="0" y1="189.8" x2="328.75" y2="189.8" gradientTransform="translate(207.5 57.9) rotate(59) scale(0.55)" xlink:href="#linear-gradient"/><linearGradient id="linear-gradient-3" x1="0" y1="189.8" x2="328.75" y2="189.8" gradientTransform="translate(205.61 55.83) rotate(58) scale(0.56)" xlink:href="#linear-gradient"/><linearGradient id="linear-gradient-4" x1="0" y1="189.8" x2="328.75" y2="189.8" gradientTransform="translate(203.66 53.77) rotate(57) scale(0.56)" xlink:href="#linear-gradient"/><linearGradient id="linear-gradient-5" x1="0" y1="189.8" x2="328.75" y2="189.8" gradientTransform="translate(201.65 51.73) rotate(56) scale(0.57)" xlink:href="#linear-gradient"/><linearGradient id="linear-gradient-6" x1="0" y1="189.8" x2="328.75" y2="189.8" gradientTransform="translate(199.58 49.7) rotate(55) scale(0.58)" xlink:href="#linear-gradient"/><linearGradient id="linear-gradient-7" x1="0" y1="189.8" x2="328.75" y2="189.8" gradientTransform="matrix(0.34, 0.47, -0.47, 0.34, 197.47, 47.68)" xlink:href="#linear-gradient"/><linearGradient id="linear-gradient-8" x1="0" y1="189.8" x2="328.75" y2="189.8" gradientTransform="translate(195.29 45.68) rotate(53) scale(0.59)" xlink:href="#linear-gradient"/><linearGradient id="linear-gradient-9" x1="0" y1="189.8" x2="328.75" y2="189.8" gradientTransform="matrix(0.37, 0.47, -0.47, 0.37, 193.06, 43.71)" xlink:href="#linear-gradient"/><linearGradient id="linear-gradient-10" x1="0" y1="189.8" x2="328.75" y2="189.8" gradientTransform="translate(190.77 41.75) rotate(51) scale(0.6)" xlink:href="#linear-gradient"/><linearGradient id="linear-gradient-11" x1="0" y1="189.8" x2="328.75" y2="189.8" gradientTransform="matrix(0.39, 0.46, -0.46, 0.39, 188.42, 39.81)" xlink:href="#linear-gradient"/><linearGradient id="linear-gradient-12" x1="0" y1="189.8" x2="328.75" y2="189.8" gradientTransform="translate(186.01 37.89) rotate(49) scale(0.61)" xlink:href="#linear-gradient"/><linearGradient id="linear-gradient-13" x1="0" y1="189.8" x2="328.75" y2="189.8" gradientTransform="translate(183.55 36) rotate(48) scale(0.62)" xlink:href="#linear-gradient"/><linearGradient id="linear-gradient-14" x1="0" y1="189.8" x2="328.75" y2="189.8" gradientTransform="translate(181.03 34.13) rotate(47) scale(0.62)" xlink:href="#linear-gradient"/><linearGradient id="linear-gradient-15" x1="0" y1="189.8" x2="328.75" y2="189.8" gradientTransform="translate(178.45 32.29) rotate(46) scale(0.63)" xlink:href="#linear-gradient"/><linearGradient id="linear-gradient-16" x1="0" y1="189.8" x2="328.75" y2="189.8" gradientTransform="translate(175.81 30.48) rotate(45) scale(0.64)" xlink:href="#linear-gradient"/><linearGradient id="linear-gradient-17" x1="0" y1="189.8" x2="328.75" y2="189.8" gradientTransform="translate(173.12 28.69) rotate(44) scale(0.64)" xlink:href="#linear-gradient"/><linearGradient id="linear-gradient-18" x1="0" y1="189.8" x2="328.75" y2="189.8" gradientTransform="translate(170.37 26.93) rotate(43) scale(0.65)" xlink:href="#linear-gradient"/><linearGradient id="linear-gradient-19" x1="0" y1="189.8" x2="328.75" y2="189.8" gradientTransform="translate(167.55 25.21) rotate(42) scale(0.66)" xlink:href="#linear-gradient"/><linearGradient id="linear-gradient-20" x1="0" y1="189.8" x2="328.75" y2="189.8" gradientTransform="matrix(0.5, 0.43, -0.43, 0.5, 164.68, 23.51)" xlink:href="#linear-gradient"/><linearGradient id="linear-gradient-21" x1="0" y1="189.8" x2="328.75" y2="189.8" gradientTransform="translate(161.76 21.85) rotate(40) scale(0.67)" xlink:href="#linear-gradient"/><linearGradient id="linear-gradient-22" x1="0" y1="189.8" x2="328.75" y2="189.8" gradientTransform="translate(158.77 20.23) rotate(39) scale(0.68)" xlink:href="#linear-gradient"/><linearGradient id="linear-gradient-23" x1="0" y1="189.8" x2="328.75" y2="189.8" gradientTransform="translate(155.72 18.64) rotate(38) scale(0.68)" xlink:href="#linear-gradient"/><linearGradient id="linear-gradient-24" x1="0" y1="189.8" x2="328.75" y2="189.8" gradientTransform="matrix(0.55, 0.41, -0.41, 0.55, 152.62, 17.09)" xlink:href="#linear-gradient"/><linearGradient id="linear-gradient-25" x1="0" y1="189.8" x2="328.75" y2="189.8" gradientTransform="translate(149.46 15.58) rotate(36) scale(0.7)" xlink:href="#linear-gradient"/><linearGradient id="linear-gradient-26" x1="0" y1="189.8" x2="328.75" y2="189.8" gradientTransform="matrix(0.58, 0.4, -0.4, 0.58, 146.24, 14.11)" xlink:href="#linear-gradient"/><linearGradient id="linear-gradient-27" x1="0" y1="189.8" x2="328.75" y2="189.8" gradientTransform="translate(142.96 12.68) rotate(34) scale(0.71)" xlink:href="#linear-gradient"/><linearGradient id="linear-gradient-28" x1="0" y1="189.8" x2="328.75" y2="189.8" gradientTransform="translate(139.63 11.3) rotate(33) scale(0.72)" xlink:href="#linear-gradient"/><linearGradient id="linear-gradient-29" x1="0" y1="189.8" x2="328.75" y2="189.8" gradientTransform="translate(136.23 9.96) rotate(32) scale(0.72)" xlink:href="#linear-gradient"/><linearGradient id="linear-gradient-30" x1="0" y1="189.8" x2="328.75" y2="189.8" gradientTransform="translate(132.78 8.67) rotate(31) scale(0.73)" xlink:href="#linear-gradient"/><linearGradient id="linear-gradient-31" x1="0" y1="189.8" x2="328.75" y2="189.8" gradientTransform="translate(129.28 7.42) rotate(30) scale(0.74)" xlink:href="#linear-gradient"/><linearGradient id="linear-gradient-32" x1="0" y1="189.8" x2="328.75" y2="189.8" gradientTransform="matrix(0.65, 0.36, -0.36, 0.65, 125.71, 6.23)" xlink:href="#linear-gradient"/><linearGradient id="linear-gradient-33" x1="0" y1="189.8" x2="328.75" y2="189.8" gradientTransform="translate(122.09 5.08) rotate(28) scale(0.75)" xlink:href="#linear-gradient"/><linearGradient id="linear-gradient-34" x1="0" y1="189.8" x2="328.75" y2="189.8" gradientTransform="translate(118.41 3.99) rotate(27) scale(0.76)" xlink:href="#linear-gradient"/><linearGradient id="linear-gradient-35" x1="0" y1="189.8" x2="328.75" y2="189.8" gradientTransform="translate(114.68 2.95) rotate(26) scale(0.77)" xlink:href="#linear-gradient"/><linearGradient id="linear-gradient-36" x1="0" y1="189.8" x2="328.75" y2="189.8" gradientTransform="translate(110.89 1.97) rotate(25) scale(0.78)" xlink:href="#linear-gradient"/><linearGradient id="linear-gradient-37" x1="0" y1="189.8" x2="328.75" y2="189.8" gradientTransform="translate(107.05 1.04) rotate(24) scale(0.79)" xlink:href="#linear-gradient"/><linearGradient id="linear-gradient-38" x1="0" y1="189.8" x2="328.75" y2="189.8" gradientTransform="translate(103.15 0.18) rotate(23) scale(0.79)" xlink:href="#linear-gradient"/><linearGradient id="linear-gradient-39" x1="0" y1="189.8" x2="328.75" y2="189.8" gradientTransform="translate(99.2 -0.63) rotate(22) scale(0.8)" xlink:href="#linear-gradient"/><linearGradient id="linear-gradient-40" x1="0" y1="189.8" x2="328.75" y2="189.8" gradientTransform="translate(95.19 -1.38) rotate(21) scale(0.81)" xlink:href="#linear-gradient"/><linearGradient id="linear-gradient-41" x1="0" y1="189.8" x2="328.75" y2="189.8" gradientTransform="translate(91.14 -2.06) rotate(20) scale(0.82)" xlink:href="#linear-gradient"/><linearGradient id="linear-gradient-42" x1="0" y1="189.8" x2="328.75" y2="189.8" gradientTransform="translate(87.02 -2.68) rotate(19) scale(0.83)" xlink:href="#linear-gradient"/><linearGradient id="linear-gradient-43" x1="0" y1="189.8" x2="328.75" y2="189.8" gradientTransform="matrix(0.79, 0.26, -0.26, 0.79, 82.86, -3.23)" xlink:href="#linear-gradient"/><linearGradient id="linear-gradient-44" x1="0" y1="189.8" x2="328.75" y2="189.8" gradientTransform="translate(78.65 -3.71) rotate(17) scale(0.84)" xlink:href="#linear-gradient"/><linearGradient id="linear-gradient-45" x1="0" y1="189.8" x2="328.75" y2="189.8" gradientTransform="matrix(0.82, 0.23, -0.23, 0.82, 74.38, -4.12)" xlink:href="#linear-gradient"/><linearGradient id="linear-gradient-46" x1="0" y1="189.8" x2="328.75" y2="189.8" gradientTransform="translate(70.07 -4.47) rotate(15) scale(0.86)" xlink:href="#linear-gradient"/><linearGradient id="linear-gradient-47" x1="0" y1="189.8" x2="328.75" y2="189.8" gradientTransform="translate(65.71 -4.74) rotate(14) scale(0.87)" xlink:href="#linear-gradient"/><linearGradient id="linear-gradient-48" x1="0" y1="189.8" x2="328.75" y2="189.8" gradientTransform="matrix(0.86, 0.2, -0.2, 0.86, 61.3, -4.93)" xlink:href="#linear-gradient"/><linearGradient id="linear-gradient-49" x1="0" y1="189.8" x2="328.75" y2="189.8" gradientTransform="translate(56.84 -5.05) rotate(12) scale(0.89)" xlink:href="#linear-gradient"/><linearGradient id="linear-gradient-50" x1="0" y1="189.8" x2="328.75" y2="189.8" gradientTransform="translate(52.33 -5.09) rotate(11) scale(0.9)" xlink:href="#linear-gradient"/><linearGradient id="linear-gradient-51" x1="0" y1="189.8" x2="328.75" y2="189.8" gradientTransform="translate(47.78 -5.06) rotate(10) scale(0.9)" xlink:href="#linear-gradient"/><linearGradient id="linear-gradient-52" x1="0" y1="189.8" x2="328.75" y2="189.8" gradientTransform="matrix(0.9, 0.14, -0.14, 0.9, 43.19, -4.94)" xlink:href="#linear-gradient"/><linearGradient id="linear-gradient-53" x1="0" y1="189.8" x2="328.75" y2="189.8" gradientTransform="translate(38.55 -4.74) rotate(8) scale(0.92)" xlink:href="#linear-gradient"/><linearGradient id="linear-gradient-54" x1="0" y1="189.8" x2="328.75" y2="189.8" gradientTransform="matrix(0.93, 0.11, -0.11, 0.93, 33.87, -4.46)" xlink:href="#linear-gradient"/><linearGradient id="linear-gradient-55" x1="0" y1="189.8" x2="328.75" y2="189.8" gradientTransform="translate(29.15 -4.09) rotate(6) scale(0.94)" xlink:href="#linear-gradient"/><linearGradient id="linear-gradient-56" x1="0" y1="189.8" x2="328.75" y2="189.8" gradientTransform="translate(24.38 -3.63) rotate(5) scale(0.95)" xlink:href="#linear-gradient"/><linearGradient id="linear-gradient-57" x1="0" y1="189.8" x2="328.75" y2="189.8" gradientTransform="matrix(0.96, 0.07, -0.07, 0.96, 19.58, -3.09)" xlink:href="#linear-gradient"/><linearGradient id="linear-gradient-58" x1="0" y1="189.8" x2="328.75" y2="189.8" gradientTransform="matrix(0.97, 0.05, -0.05, 0.97, 14.74, -2.46)" xlink:href="#linear-gradient"/><linearGradient id="linear-gradient-59" x1="0" y1="189.8" x2="328.75" y2="189.8" gradientTransform="translate(9.86 -1.73) rotate(2) scale(0.98)" xlink:href="#linear-gradient"/><linearGradient id="linear-gradient-60" x1="0" y1="189.8" x2="328.75" y2="189.8" gradientTransform="matrix(0.99, 0.02, -0.02, 0.99, 4.95, -0.91)" xlink:href="#linear-gradient"/><linearGradient id="linear-gradient-61" x1="0" y1="189.8" x2="328.75" y2="189.8" gradientTransform="matrix(1, 0, 0, 1, 0, 0)" xlink:href="#linear-gradient"/></defs><title>Asset 3</title><g id="Layer_2" data-name="Layer 2"><g id="Layer_1-2" data-name="Layer 1"><polygon class="cls-1" points="164.38 293.42 254.11 241.61 254.11 138 164.38 86.19 74.64 138 74.64 241.61 164.38 293.42"/><polygon class="cls-2" points="166.2 294.45 255.91 240.54 254.09 135.9 162.55 85.16 72.83 139.06 74.66 243.71 166.2 294.45"/><polygon class="cls-3" points="168.06 295.46 257.72 239.44 254.03 133.78 160.69 84.15 71.03 140.17 74.72 245.83 168.06 295.46"/><polygon class="cls-4" points="169.96 296.44 259.52 238.28 253.93 131.64 158.79 83.16 69.23 141.32 74.82 247.96 169.96 296.44"/><polygon class="cls-5" points="171.9 297.41 261.32 237.09 253.8 129.49 156.85 82.2 67.43 142.52 74.95 250.12 171.9 297.41"/><polygon class="cls-6" points="173.87 298.35 263.12 235.85 253.63 127.31 154.88 81.26 65.63 143.76 75.12 252.3 173.87 298.35"/><polygon class="cls-7" points="175.88 299.26 264.92 234.57 253.41 125.11 152.87 80.35 63.83 145.04 75.34 254.49 175.88 299.26"/><polygon class="cls-8" points="177.92 300.14 266.7 233.24 253.16 122.9 150.83 79.47 62.05 146.37 75.59 256.71 177.92 300.14"/><polygon class="cls-9" points="180 301 268.49 231.87 252.86 120.67 148.75 78.61 60.26 147.74 75.89 258.94 180 301"/><polygon class="cls-10" points="182.12 301.83 270.27 230.45 252.52 118.42 146.63 77.78 58.48 149.16 76.23 261.18 182.12 301.83"/><polygon class="cls-11" points="184.27 302.63 272.04 228.99 252.14 116.16 144.48 76.97 56.71 150.62 76.61 263.45 184.27 302.63"/><polygon class="cls-12" points="186.46 303.4 273.8 227.48 251.72 113.88 142.29 76.2 54.95 152.13 77.03 265.73 186.46 303.4"/><polygon class="cls-13" points="188.68 304.15 275.55 225.93 251.25 111.58 140.07 75.46 53.2 153.68 77.5 268.02 188.68 304.15"/><polygon class="cls-14" points="190.94 304.86 277.29 224.33 250.73 109.28 137.81 74.75 51.46 155.28 78.02 270.33 190.94 304.86"/><polygon class="cls-15" points="193.23 305.53 279.02 222.68 250.17 106.95 135.52 74.08 49.73 156.93 78.58 272.66 193.23 305.53"/><polygon class="cls-16" points="195.56 306.17 280.75 220.99 249.56 104.61 133.19 73.43 48.01 158.62 79.19 274.99 195.56 306.17"/><polygon class="cls-17" points="197.92 306.78 282.45 219.24 248.91 102.27 130.83 72.83 46.3 160.36 79.84 277.34 197.92 306.78"/><polygon class="cls-18" points="200.31 307.35 284.15 217.46 248.21 99.91 128.44 72.25 44.6 162.15 80.54 279.7 200.31 307.35"/><polygon class="cls-19" points="202.74 307.89 285.82 215.62 247.46 97.53 126.01 71.72 42.92 163.99 81.29 282.07 202.74 307.89"/><polygon class="cls-20" points="205.21 308.39 287.49 213.74 246.66 95.15 123.54 71.22 41.26 165.87 82.09 284.46 205.21 308.39"/><polygon class="cls-21" points="207.7 308.85 289.13 211.8 245.81 92.76 121.05 70.76 39.62 167.81 82.94 286.85 207.7 308.85"/><polygon class="cls-22" points="210.23 309.27 290.76 209.82 244.91 90.36 118.52 70.34 37.99 169.79 83.84 289.25 210.23 309.27"/><polygon class="cls-23" points="212.79 309.65 292.37 207.79 243.95 87.95 115.95 69.96 36.38 171.81 84.8 291.66 212.79 309.65"/><polygon class="cls-24" points="215.39 309.99 293.96 205.72 242.95 85.53 113.36 69.62 34.79 173.89 85.8 294.07 215.39 309.99"/><polygon class="cls-25" points="218.02 310.28 295.53 203.59 241.89 83.11 110.73 69.33 33.22 176.02 86.86 296.5 218.02 310.28"/><polygon class="cls-26" points="220.67 310.54 297.08 201.41 240.78 80.68 108.08 69.07 31.67 178.19 87.97 298.93 220.67 310.54"/><polygon class="cls-27" points="223.36 310.74 298.61 199.19 239.62 78.25 105.39 68.86 30.14 180.42 89.13 301.36 223.36 310.74"/><polygon class="cls-28" points="226.08 310.91 300.11 196.92 238.4 75.81 102.67 68.7 28.64 182.69 90.35 303.79 226.08 310.91"/><polygon class="cls-29" points="228.83 311.02 301.58 194.59 237.13 73.38 99.92 68.58 27.17 185.01 91.62 306.23 228.83 311.02"/><polygon class="cls-30" points="231.61 311.09 303.03 192.22 235.8 70.94 97.14 68.51 25.72 187.38 92.95 308.67 231.61 311.09"/><polygon class="cls-31" points="234.41 311.12 304.45 189.8 234.41 68.49 94.34 68.49 24.3 189.8 94.34 311.12 234.41 311.12"/><polygon class="cls-32" points="237.25 311.09 305.85 187.34 232.97 66.05 91.5 68.52 22.9 192.27 95.78 313.56 237.25 311.09"/><polygon class="cls-33" points="240.11 311.01 307.21 184.82 231.47 63.61 88.64 68.6 21.54 194.79 97.28 316 240.11 311.01"/><polygon class="cls-34" points="243 310.88 308.54 182.25 229.92 61.17 85.75 68.73 20.21 197.36 98.83 318.44 243 310.88"/><polygon class="cls-35" points="245.92 310.7 309.84 179.63 228.3 58.74 82.83 68.91 18.91 199.98 100.45 320.87 245.92 310.7"/><polygon class="cls-36" points="248.86 310.46 311.11 176.97 226.63 56.31 79.89 69.14 17.64 202.64 102.13 323.3 248.86 310.46"/><polygon class="cls-37" points="251.83 310.17 312.35 174.25 224.89 53.88 76.92 69.44 16.41 205.36 103.86 325.73 251.83 310.17"/><polygon class="cls-38" points="254.82 309.83 313.54 171.49 223.1 51.46 73.93 69.78 15.21 208.12 105.65 328.14 254.82 309.83"/><polygon class="cls-39" points="257.84 309.43 314.7 168.68 221.24 49.05 70.91 70.18 14.05 210.93 107.51 330.56 257.84 309.43"/><polygon class="cls-40" points="260.87 308.97 315.83 165.82 219.33 46.65 67.88 70.64 12.92 213.79 109.42 332.96 260.87 308.97"/><polygon class="cls-41" points="263.94 308.45 316.91 162.91 217.35 44.26 64.81 71.15 11.84 216.7 111.4 335.35 263.94 308.45"/><polygon class="cls-42" points="267.02 307.88 317.95 159.95 215.31 41.88 61.73 71.73 10.8 219.66 113.44 337.73 267.02 307.88"/><polygon class="cls-43" points="270.12 307.25 318.95 156.95 213.21 39.51 58.63 72.36 9.8 222.66 115.54 340.1 270.12 307.25"/><polygon class="cls-44" points="273.24 306.55 319.91 153.9 211.05 37.15 55.51 73.06 8.84 225.71 117.7 342.46 273.24 306.55"/><polygon class="cls-45" points="276.38 305.79 320.83 150.8 208.82 34.81 52.37 73.82 7.92 228.81 119.93 344.8 276.38 305.79"/><polygon class="cls-46" points="279.54 304.97 321.69 147.65 206.53 32.48 49.21 74.64 7.05 231.96 122.22 347.12 279.54 304.97"/><polygon class="cls-47" points="282.72 304.09 322.52 144.46 204.18 30.18 46.03 75.52 6.23 235.15 124.58 349.43 282.72 304.09"/><polygon class="cls-48" points="285.91 303.14 323.29 141.22 201.76 27.89 42.84 76.47 5.46 238.39 126.99 351.72 285.91 303.14"/><polygon class="cls-49" points="289.12 302.12 324.01 137.93 199.27 25.62 39.63 77.49 4.74 241.67 129.48 353.99 289.12 302.12"/><polygon class="cls-50" points="292.34 301.04 324.69 134.6 196.73 23.37 36.41 78.57 4.06 245 132.02 356.24 292.34 301.04"/><polygon class="cls-51" points="295.57 299.89 325.31 131.23 194.12 21.14 33.18 79.72 3.44 248.38 134.63 358.47 295.57 299.89"/><polygon class="cls-52" points="298.82 298.67 325.88 127.81 191.44 18.94 29.93 80.94 2.87 251.8 137.31 360.67 298.82 298.67"/><polygon class="cls-53" points="302.07 297.38 326.39 124.34 188.69 16.76 26.68 82.22 2.36 255.26 140.06 362.84 302.07 297.38"/><polygon class="cls-54" points="305.34 296.03 326.85 120.84 185.89 14.61 23.41 83.58 1.9 258.77 142.86 364.99 305.34 296.03"/><polygon class="cls-55" points="308.61 294.6 327.25 117.29 183.01 12.49 20.14 85.01 1.5 262.32 145.74 367.12 308.61 294.6"/><polygon class="cls-56" points="311.9 293.1 327.59 113.69 180.07 10.4 16.85 86.51 1.16 265.91 148.68 369.21 311.9 293.1"/><polygon class="cls-57" points="315.18 291.53 327.87 110.06 177.06 8.34 13.57 88.08 0.88 269.55 151.69 371.27 315.18 291.53"/><polygon class="cls-58" points="318.48 289.88 328.09 106.39 173.99 6.31 10.27 89.73 0.66 273.22 154.76 373.3 318.48 289.88"/><polygon class="cls-59" points="321.77 288.16 328.25 102.67 170.85 4.32 6.97 91.45 0.5 276.94 157.9 375.29 321.77 288.16"/><polygon class="cls-60" points="325.07 286.36 328.35 98.91 167.65 2.35 3.68 93.25 0.4 280.69 161.1 377.25 325.07 286.36"/><polygon class="cls-61" points="328.38 284.49 328.38 95.12 164.38 0.43 0.38 95.12 0.38 284.49 164.38 379.18 328.38 284.49"/></g></g></svg>