<svg xmlns="http://www.w3.org/2000/svg" xmlns:xlink="http://www.w3.org/1999/xlink" viewBox="0 0 760.45 383.21"><defs><style>.cls-1,.cls-10,.cls-100,.cls-101,.cls-102,.cls-103,.cls-104,.cls-105,.cls-106,.cls-107,.cls-108,.cls-109,.cls-11,.cls-110,.cls-111,.cls-112,.cls-113,.cls-114,.cls-115,.cls-116,.cls-117,.cls-118,.cls-119,.cls-12,.cls-120,.cls-121,.cls-122,.cls-13,.cls-14,.cls-15,.cls-16,.cls-17,.cls-18,.cls-19,.cls-2,.cls-20,.cls-21,.cls-22,.cls-23,.cls-24,.cls-25,.cls-26,.cls-27,.cls-28,.cls-29,.cls-3,.cls-30,.cls-31,.cls-32,.cls-33,.cls-34,.cls-35,.cls-36,.cls-37,.cls-38,.cls-39,.cls-4,.cls-40,.cls-41,.cls-42,.cls-43,.cls-44,.cls-45,.cls-46,.cls-47,.cls-48,.cls-49,.cls-5,.cls-50,.cls-51,.cls-52,.cls-53,.cls-54,.cls-55,.cls-56,.cls-57,.cls-58,.cls-59,.cls-6,.cls-60,.cls-61,.cls-62,.cls-63,.cls-64,.cls-65,.cls-66,.cls-67,.cls-68,.cls-69,.cls-7,.cls-70,.cls-71,.cls-72,.cls-73,.cls-74,.cls-75,.cls-76,.cls-77,.cls-78,.cls-79,.cls-8,.cls-80,.cls-81,.cls-82,.cls-83,.cls-84,.cls-85,.cls-86,.cls-87,.cls-88,.cls-89,.cls-9,.cls-90,.cls-91,.cls-92,.cls-93,.cls-94,.cls-95,.cls-96,.cls-97,.cls-98,.cls-99{fill:none;stroke-miterlimit:10;}.cls-1,.cls-10,.cls-11,.cls-12,.cls-13,.cls-14,.cls-15,.cls-16,.cls-17,.cls-18,.cls-19,.cls-2,.cls-20,.cls-21,.cls-22,.cls-23,.cls-24,.cls-25,.cls-26,.cls-27,.cls-28,.cls-29,.cls-3,.cls-30,.cls-31,.cls-32,.cls-33,.cls-34,.cls-35,.cls-36,.cls-37,.cls-38,.cls-39,.cls-4,.cls-40,.cls-41,.cls-42,.cls-43,.cls-44,.cls-45,.cls-46,.cls-47,.cls-48,.cls-49,.cls-5,.cls-50,.cls-51,.cls-52,.cls-53,.cls-54,.cls-55,.cls-56,.cls-57,.cls-58,.cls-59,.cls-6,.cls-60,.cls-61,.cls-7,.cls-8,.cls-9{stroke-width:0.5px;}.cls-1{stroke:url(#linear-gradient);}.cls-2{stroke:url(#linear-gradient-2);}.cls-3{stroke:url(#linear-gradient-3);}.cls-4{stroke:url(#linear-gradient-4);}.cls-5{stroke:url(#linear-gradient-5);}.cls-6{stroke:url(#linear-gradient-6);}.cls-7{stroke:url(#linear-gradient-7);}.cls-8{stroke:url(#linear-gradient-8);}.cls-9{stroke:url(#linear-gradient-9);}.cls-10{stroke:url(#linear-gradient-10);}.cls-11{stroke:url(#linear-gradient-11);}.cls-12{stroke:url(#linear-gradient-12);}.cls-13{stroke:url(#linear-gradient-13);}.cls-14{stroke:url(#linear-gradient-14);}.cls-15{stroke:url(#linear-gradient-15);}.cls-16{stroke:url(#linear-gradient-16);}.cls-17{stroke:url(#linear-gradient-17);}.cls-18{stroke:url(#linear-gradient-18);}.cls-19{stroke:url(#linear-gradient-19);}.cls-20{stroke:url(#linear-gradient-20);}.cls-21{stroke:url(#linear-gradient-21);}.cls-22{stroke:url(#linear-gradient-22);}.cls-23{stroke:url(#linear-gradient-23);}.cls-24{stroke:url(#linear-gradient-24);}.cls-25{stroke:url(#linear-gradient-25);}.cls-26{stroke:url(#linear-gradient-26);}.cls-27{stroke:url(#linear-gradient-27);}.cls-28{stroke:url(#linear-gradient-28);}.cls-29{stroke:url(#linear-gradient-29);}.cls-30{stroke:url(#linear-gradient-30);}.cls-31{stroke:url(#linear-gradient-31);}.cls-32{stroke:url(#linear-gradient-32);}.cls-33{stroke:url(#linear-gradient-33);}.cls-34{stroke:url(#linear-gradient-34);}.cls-35{stroke:url(#linear-gradient-35);}.cls-36{stroke:url(#linear-gradient-36);}.cls-37{stroke:url(#linear-gradient-37);}.cls-38{stroke:url(#linear-gradient-38);}.cls-39{stroke:url(#linear-gradient-39);}.cls-40{stroke:url(#linear-gradient-40);}.cls-41{stroke:url(#linear-gradient-41);}.cls-42{stroke:url(#linear-gradient-42);}.cls-43{stroke:url(#linear-gradient-43);}.cls-44{stroke:url(#linear-gradient-44);}.cls-45{stroke:url(#linear-gradient-45);}.cls-46{stroke:url(#linear-gradient-46);}.cls-47{stroke:url(#linear-gradient-47);}.cls-48{stroke:url(#linear-gradient-48);}.cls-49{stroke:url(#linear-gradient-49);}.cls-50{stroke:url(#linear-gradient-50);}.cls-51{stroke:url(#linear-gradient-51);}.cls-52{stroke:url(#linear-gradient-52);}.cls-53{stroke:url(#linear-gradient-53);}.cls-54{stroke:url(#linear-gradient-54);}.cls-55{stroke:url(#linear-gradient-55);}.cls-56{stroke:url(#linear-gradient-56);}.cls-57{stroke:url(#linear-gradient-57);}.cls-58{stroke:url(#linear-gradient-58);}.cls-59{stroke:url(#linear-gradient-59);}.cls-60{stroke:url(#linear-gradient-60);}.cls-61{stroke:url(#linear-gradient-61);}.cls-100,.cls-101,.cls-102,.cls-103,.cls-104,.cls-105,.cls-106,.cls-107,.cls-108,.cls-109,.cls-110,.cls-111,.cls-112,.cls-113,.cls-114,.cls-115,.cls-116,.cls-117,.cls-118,.cls-119,.cls-120,.cls-121,.cls-122,.cls-62,.cls-63,.cls-64,.cls-65,.cls-66,.cls-67,.cls-68,.cls-69,.cls-70,.cls-71,.cls-72,.cls-73,.cls-74,.cls-75,.cls-76,.cls-77,.cls-78,.cls-79,.cls-80,.cls-81,.cls-82,.cls-83,.cls-84,.cls-85,.cls-86,.cls-87,.cls-88,.cls-89,.cls-90,.cls-91,.cls-92,.cls-93,.cls-94,.cls-95,.cls-96,.cls-97,.cls-98,.cls-99{stroke-width:0.75px;}.cls-62{stroke:url(#linear-gradient-62);}.cls-63{stroke:url(#linear-gradient-63);}.cls-64{stroke:url(#linear-gradient-64);}.cls-65{stroke:url(#linear-gradient-65);}.cls-66{stroke:url(#linear-gradient-66);}.cls-67{stroke:url(#linear-gradient-67);}.cls-68{stroke:url(#linear-gradient-68);}.cls-69{stroke:url(#linear-gradient-69);}.cls-70{stroke:url(#linear-gradient-70);}.cls-71{stroke:url(#linear-gradient-71);}.cls-72{stroke:url(#linear-gradient-72);}.cls-73{stroke:url(#linear-gradient-73);}.cls-74{stroke:url(#linear-gradient-74);}.cls-75{stroke:url(#linear-gradient-75);}.cls-76{stroke:url(#linear-gradient-76);}.cls-77{stroke:url(#linear-gradient-77);}.cls-78{stroke:url(#linear-gradient-78);}.cls-79{stroke:url(#linear-gradient-79);}.cls-80{stroke:url(#linear-gradient-80);}.cls-81{stroke:url(#linear-gradient-81);}.cls-82{stroke:url(#linear-gradient-82);}.cls-83{stroke:url(#linear-gradient-83);}.cls-84{stroke:url(#linear-gradient-84);}.cls-85{stroke:url(#linear-gradient-85);}.cls-86{stroke:url(#linear-gradient-86);}.cls-87{stroke:url(#linear-gradient-87);}.cls-88{stroke:url(#linear-gradient-88);}.cls-89{stroke:url(#linear-gradient-89);}.cls-90{stroke:url(#linear-gradient-90);}.cls-91{stroke:url(#linear-gradient-91);}.cls-92{stroke:url(#linear-gradient-92);}.cls-93{stroke:url(#linear-gradient-93);}.cls-94{stroke:url(#linear-gradient-94);}.cls-95{stroke:url(#linear-gradient-95);}.cls-96{stroke:url(#linear-gradient-96);}.cls-97{stroke:url(#linear-gradient-97);}.cls-98{stroke:url(#linear-gradient-98);}.cls-99{stroke:url(#linear-gradient-99);}.cls-100{stroke:url(#linear-gradient-100);}.cls-101{stroke:url(#linear-gradient-101);}.cls-102{stroke:url(#linear-gradient-102);}.cls-103{stroke:url(#linear-gradient-103);}.cls-104{stroke:url(#linear-gradient-104);}.cls-105{stroke:url(#linear-gradient-105);}.cls-106{stroke:url(#linear-gradient-106);}.cls-107{stroke:url(#linear-gradient-107);}.cls-108{stroke:url(#linear-gradient-108);}.cls-109{stroke:url(#linear-gradient-109);}.cls-110{stroke:url(#linear-gradient-110);}.cls-111{stroke:url(#linear-gradient-111);}.cls-112{stroke:url(#linear-gradient-112);}.cls-113{stroke:url(#linear-gradient-113);}.cls-114{stroke:url(#linear-gradient-114);}.cls-115{stroke:url(#linear-gradient-115);}.cls-116{stroke:url(#linear-gradient-116);}.cls-117{stroke:url(#linear-gradient-117);}.cls-118{stroke:url(#linear-gradient-118);}.cls-119{stroke:url(#linear-gradient-119);}.cls-120{stroke:url(#linear-gradient-120);}.cls-121{stroke:url(#linear-gradient-121);}.cls-122{stroke:url(#linear-gradient-122);}</style><linearGradient id="linear-gradient" y1="189.66" x2="328.5" y2="189.66" gradientTransform="matrix(0.27, 0.47, -0.47, 0.27, 209.19, 59.94)" gradientUnits="userSpaceOnUse"><stop offset="0" stop-color="lime"/><stop offset="0.04" stop-color="#00d809"/><stop offset="0.09" stop-color="#00b412"/><stop offset="0.15" stop-color="#01941a"/><stop offset="0.21" stop-color="#017821"/><stop offset="0.28" stop-color="#016226"/><stop offset="0.36" stop-color="#01512a"/><stop offset="0.46" stop-color="#01462d"/><stop offset="0.61" stop-color="#013f2f"/><stop offset="1" stop-color="#013d2f"/></linearGradient><linearGradient id="linear-gradient-2" x1="0" y1="189.66" x2="328.5" y2="189.66" gradientTransform="translate(207.35 57.86) rotate(59) scale(0.55)" xlink:href="#linear-gradient"/><linearGradient id="linear-gradient-3" x1="0" y1="189.66" x2="328.5" y2="189.66" gradientTransform="translate(205.45 55.79) rotate(58) scale(0.56)" xlink:href="#linear-gradient"/><linearGradient id="linear-gradient-4" x1="0" y1="189.66" x2="328.5" y2="189.66" gradientTransform="translate(203.5 53.73) rotate(57) scale(0.56)" xlink:href="#linear-gradient"/><linearGradient id="linear-gradient-5" x1="0" y1="189.66" x2="328.5" y2="189.66" gradientTransform="translate(201.49 51.69) rotate(56) scale(0.57)" xlink:href="#linear-gradient"/><linearGradient id="linear-gradient-6" x1="0" y1="189.66" x2="328.5" y2="189.66" gradientTransform="translate(199.43 49.66) rotate(55) scale(0.58)" xlink:href="#linear-gradient"/><linearGradient id="linear-gradient-7" x1="0" y1="189.66" x2="328.5" y2="189.66" gradientTransform="matrix(0.34, 0.47, -0.47, 0.34, 197.31, 47.65)" xlink:href="#linear-gradient"/><linearGradient id="linear-gradient-8" x1="0" y1="189.66" x2="328.5" y2="189.66" gradientTransform="translate(195.14 45.65) rotate(53) scale(0.59)" xlink:href="#linear-gradient"/><linearGradient id="linear-gradient-9" x1="0" y1="189.66" x2="328.5" y2="189.66" gradientTransform="matrix(0.37, 0.47, -0.47, 0.37, 192.91, 43.67)" xlink:href="#linear-gradient"/><linearGradient id="linear-gradient-10" x1="0" y1="189.66" x2="328.5" y2="189.66" gradientTransform="translate(190.62 41.72) rotate(51) scale(0.6)" xlink:href="#linear-gradient"/><linearGradient id="linear-gradient-11" x1="0" y1="189.66" x2="328.5" y2="189.66" gradientTransform="matrix(0.39, 0.46, -0.46, 0.39, 188.27, 39.78)" xlink:href="#linear-gradient"/><linearGradient id="linear-gradient-12" x1="0" y1="189.66" x2="328.5" y2="189.66" gradientTransform="translate(185.87 37.86) rotate(49) scale(0.61)" xlink:href="#linear-gradient"/><linearGradient id="linear-gradient-13" x1="0" y1="189.66" x2="328.5" y2="189.66" gradientTransform="translate(183.41 35.97) rotate(48) scale(0.62)" xlink:href="#linear-gradient"/><linearGradient id="linear-gradient-14" x1="0" y1="189.66" x2="328.5" y2="189.66" gradientTransform="translate(180.89 34.11) rotate(47) scale(0.62)" xlink:href="#linear-gradient"/><linearGradient id="linear-gradient-15" x1="0" y1="189.66" x2="328.5" y2="189.66" gradientTransform="translate(178.32 32.27) rotate(46) scale(0.63)" xlink:href="#linear-gradient"/><linearGradient id="linear-gradient-16" x1="0" y1="189.66" x2="328.5" y2="189.66" gradientTransform="translate(175.68 30.45) rotate(45) scale(0.64)" xlink:href="#linear-gradient"/><linearGradient id="linear-gradient-17" x1="0" y1="189.66" x2="328.5" y2="189.66" gradientTransform="translate(172.99 28.67) rotate(44) scale(0.64)" xlink:href="#linear-gradient"/><linearGradient id="linear-gradient-18" x1="0" y1="189.66" x2="328.5" y2="189.66" gradientTransform="translate(170.24 26.91) rotate(43) scale(0.65)" xlink:href="#linear-gradient"/><linearGradient id="linear-gradient-19" x1="0" y1="189.66" x2="328.5" y2="189.66" gradientTransform="translate(167.43 25.19) rotate(42) scale(0.66)" xlink:href="#linear-gradient"/><linearGradient id="linear-gradient-20" x1="0" y1="189.66" x2="328.5" y2="189.66" gradientTransform="matrix(0.5, 0.43, -0.43, 0.5, 164.56, 23.5)" xlink:href="#linear-gradient"/><linearGradient id="linear-gradient-21" x1="0" y1="189.66" x2="328.5" y2="189.66" gradientTransform="translate(161.63 21.84) rotate(40) scale(0.67)" xlink:href="#linear-gradient"/><linearGradient id="linear-gradient-22" x1="0" y1="189.66" x2="328.5" y2="189.66" gradientTransform="translate(158.65 20.21) rotate(39) scale(0.68)" xlink:href="#linear-gradient"/><linearGradient id="linear-gradient-23" x1="0" y1="189.66" x2="328.5" y2="189.66" gradientTransform="translate(155.61 18.63) rotate(38) scale(0.68)" xlink:href="#linear-gradient"/><linearGradient id="linear-gradient-24" x1="0" y1="189.66" x2="328.5" y2="189.66" gradientTransform="matrix(0.55, 0.41, -0.41, 0.55, 152.5, 17.08)" xlink:href="#linear-gradient"/><linearGradient id="linear-gradient-25" x1="0" y1="189.66" x2="328.5" y2="189.66" gradientTransform="translate(149.35 15.57) rotate(36) scale(0.7)" xlink:href="#linear-gradient"/><linearGradient id="linear-gradient-26" x1="0" y1="189.66" x2="328.5" y2="189.66" gradientTransform="matrix(0.58, 0.4, -0.4, 0.58, 146.13, 14.1)" xlink:href="#linear-gradient"/><linearGradient id="linear-gradient-27" x1="0" y1="189.66" x2="328.5" y2="189.66" gradientTransform="translate(142.85 12.67) rotate(34) scale(0.71)" xlink:href="#linear-gradient"/><linearGradient id="linear-gradient-28" x1="0" y1="189.66" x2="328.5" y2="189.66" gradientTransform="translate(139.52 11.29) rotate(33) scale(0.72)" xlink:href="#linear-gradient"/><linearGradient id="linear-gradient-29" x1="0" y1="189.66" x2="328.5" y2="189.66" gradientTransform="translate(136.13 9.95) rotate(32) scale(0.72)" xlink:href="#linear-gradient"/><linearGradient id="linear-gradient-30" x1="0" y1="189.66" x2="328.5" y2="189.66" gradientTransform="translate(132.68 8.66) rotate(31) scale(0.73)" xlink:href="#linear-gradient"/><linearGradient id="linear-gradient-31" x1="0" y1="189.66" x2="328.5" y2="189.66" gradientTransform="translate(129.18 7.42) rotate(30) scale(0.74)" xlink:href="#linear-gradient"/><linearGradient id="linear-gradient-32" x1="0" y1="189.66" x2="328.5" y2="189.66" gradientTransform="matrix(0.65, 0.36, -0.36, 0.65, 125.62, 6.22)" xlink:href="#linear-gradient"/><linearGradient id="linear-gradient-33" x1="0" y1="189.66" x2="328.5" y2="189.66" gradientTransform="translate(122 5.08) rotate(28) scale(0.75)" xlink:href="#linear-gradient"/><linearGradient id="linear-gradient-34" x1="0" y1="189.66" x2="328.5" y2="189.66" gradientTransform="translate(118.32 3.99) rotate(27) scale(0.76)" xlink:href="#linear-gradient"/><linearGradient id="linear-gradient-35" x1="0" y1="189.66" x2="328.5" y2="189.66" gradientTransform="translate(114.59 2.95) rotate(26) scale(0.77)" xlink:href="#linear-gradient"/><linearGradient id="linear-gradient-36" x1="0" y1="189.66" x2="328.5" y2="189.66" gradientTransform="translate(110.81 1.97) rotate(25) scale(0.78)" xlink:href="#linear-gradient"/><linearGradient id="linear-gradient-37" x1="0" y1="189.66" x2="328.5" y2="189.66" gradientTransform="translate(106.97 1.04) rotate(24) scale(0.79)" xlink:href="#linear-gradient"/><linearGradient id="linear-gradient-38" x1="0" y1="189.66" x2="328.5" y2="189.66" gradientTransform="translate(103.07 0.18) rotate(23) scale(0.79)" xlink:href="#linear-gradient"/><linearGradient id="linear-gradient-39" x1="0" y1="189.66" x2="328.5" y2="189.66" gradientTransform="translate(99.12 -0.63) rotate(22) scale(0.8)" xlink:href="#linear-gradient"/><linearGradient id="linear-gradient-40" x1="0" y1="189.66" x2="328.5" y2="189.66" gradientTransform="translate(95.12 -1.37) rotate(21) scale(0.81)" xlink:href="#linear-gradient"/><linearGradient id="linear-gradient-41" x1="0" y1="189.66" x2="328.5" y2="189.66" gradientTransform="translate(91.07 -2.06) rotate(20) scale(0.82)" xlink:href="#linear-gradient"/><linearGradient id="linear-gradient-42" x1="0" y1="189.66" x2="328.5" y2="189.66" gradientTransform="translate(86.96 -2.67) rotate(19) scale(0.83)" xlink:href="#linear-gradient"/><linearGradient id="linear-gradient-43" x1="0" y1="189.66" x2="328.5" y2="189.66" gradientTransform="matrix(0.79, 0.26, -0.26, 0.79, 82.8, -3.22)" xlink:href="#linear-gradient"/><linearGradient id="linear-gradient-44" x1="0" y1="189.66" x2="328.5" y2="189.66" gradientTransform="translate(78.59 -3.71) rotate(17) scale(0.84)" xlink:href="#linear-gradient"/><linearGradient id="linear-gradient-45" x1="0" y1="189.66" x2="328.5" y2="189.66" gradientTransform="matrix(0.82, 0.23, -0.23, 0.82, 74.33, -4.12)" xlink:href="#linear-gradient"/><linearGradient id="linear-gradient-46" x1="0" y1="189.66" x2="328.5" y2="189.66" gradientTransform="translate(70.02 -4.46) rotate(15) scale(0.86)" xlink:href="#linear-gradient"/><linearGradient id="linear-gradient-47" x1="0" y1="189.66" x2="328.5" y2="189.66" gradientTransform="translate(65.66 -4.73) rotate(14) scale(0.87)" xlink:href="#linear-gradient"/><linearGradient id="linear-gradient-48" x1="0" y1="189.66" x2="328.5" y2="189.66" gradientTransform="matrix(0.86, 0.2, -0.2, 0.86, 61.25, -4.93)" xlink:href="#linear-gradient"/><linearGradient id="linear-gradient-49" x1="0" y1="189.66" x2="328.5" y2="189.66" gradientTransform="translate(56.8 -5.05) rotate(12) scale(0.89)" xlink:href="#linear-gradient"/><linearGradient id="linear-gradient-50" x1="0" y1="189.66" x2="328.5" y2="189.66" gradientTransform="translate(52.29 -5.09) rotate(11) scale(0.9)" xlink:href="#linear-gradient"/><linearGradient id="linear-gradient-51" x1="0" y1="189.66" x2="328.5" y2="189.66" gradientTransform="translate(47.75 -5.05) rotate(10) scale(0.9)" xlink:href="#linear-gradient"/><linearGradient id="linear-gradient-52" x1="0" y1="189.66" x2="328.5" y2="189.66" gradientTransform="matrix(0.9, 0.14, -0.14, 0.9, 43.16, -4.94)" xlink:href="#linear-gradient"/><linearGradient id="linear-gradient-53" x1="0" y1="189.66" x2="328.5" y2="189.66" gradientTransform="translate(38.52 -4.74) rotate(8) scale(0.92)" xlink:href="#linear-gradient"/><linearGradient id="linear-gradient-54" x1="0" y1="189.66" x2="328.5" y2="189.66" gradientTransform="matrix(0.93, 0.11, -0.11, 0.93, 33.84, -4.46)" xlink:href="#linear-gradient"/><linearGradient id="linear-gradient-55" x1="0" y1="189.66" x2="328.5" y2="189.66" gradientTransform="translate(29.12 -4.09) rotate(6) scale(0.94)" xlink:href="#linear-gradient"/><linearGradient id="linear-gradient-56" x1="0" y1="189.66" x2="328.5" y2="189.66" gradientTransform="translate(24.36 -3.63) rotate(5) scale(0.95)" xlink:href="#linear-gradient"/><linearGradient id="linear-gradient-57" x1="0" y1="189.66" x2="328.5" y2="189.66" gradientTransform="matrix(0.96, 0.07, -0.07, 0.96, 19.57, -3.09)" xlink:href="#linear-gradient"/><linearGradient id="linear-gradient-58" x1="0" y1="189.66" x2="328.5" y2="189.66" gradientTransform="matrix(0.97, 0.05, -0.05, 0.97, 14.73, -2.46)" xlink:href="#linear-gradient"/><linearGradient id="linear-gradient-59" x1="0" y1="189.66" x2="328.5" y2="189.66" gradientTransform="translate(9.85 -1.73) rotate(2) scale(0.98)" xlink:href="#linear-gradient"/><linearGradient id="linear-gradient-60" x1="0" y1="189.66" x2="328.5" y2="189.66" gradientTransform="matrix(0.99, 0.02, -0.02, 0.99, 4.94, -0.91)" xlink:href="#linear-gradient"/><linearGradient id="linear-gradient-61" x1="0" y1="189.66" x2="328.5" y2="189.66" gradientTransform="matrix(1, 0, 0, 1, 0, 0)" xlink:href="#linear-gradient"/><linearGradient id="linear-gradient-62" x1="1629.81" y1="2278.3" x2="1958.56" y2="2278.3" gradientTransform="matrix(0.27, 0.47, 0.47, -0.27, -959.63, -35.54)" gradientUnits="userSpaceOnUse"><stop offset="0" stop-color="lime"/><stop offset="0.01" stop-color="#00de0c"/><stop offset="0.02" stop-color="#00bf17"/><stop offset="0.04" stop-color="#00a321"/><stop offset="0.05" stop-color="#008d29"/><stop offset="0.07" stop-color="#007c30"/><stop offset="0.09" stop-color="#007134"/><stop offset="0.12" stop-color="#006a36"/><stop offset="0.21" stop-color="#006837"/><stop offset="0.23" stop-color="#006334"/><stop offset="0.32" stop-color="#004a27"/><stop offset="0.43" stop-color="#00371d"/><stop offset="0.55" stop-color="#002915"/><stop offset="0.71" stop-color="#002111"/><stop offset="1" stop-color="#001f10"/></linearGradient><linearGradient id="linear-gradient-63" x1="1618.15" y1="2212.4" x2="1946.9" y2="2212.4" gradientTransform="matrix(0.28, 0.47, 0.47, -0.28, -952.11, -20.63)" xlink:href="#linear-gradient-62"/><linearGradient id="linear-gradient-64" x1="1594.76" y1="2150.03" x2="1923.51" y2="2150.03" gradientTransform="matrix(0.3, 0.47, 0.47, -0.3, -946.87, -3.75)" xlink:href="#linear-gradient-62"/><linearGradient id="linear-gradient-65" x1="1614.44" y1="2105.54" x2="1943.19" y2="2105.54" gradientTransform="matrix(0.3, 0.47, 0.47, -0.3, -935.69, -0.38)" xlink:href="#linear-gradient-62"/><linearGradient id="linear-gradient-66" x1="1590.06" y1="2045.44" x2="1918.59" y2="2045.44" gradientTransform="matrix(0.32, 0.47, 0.47, -0.32, -929.68, 16.36)" xlink:href="#linear-gradient-62"/><linearGradient id="linear-gradient-67" x1="1565.81" y1="1987.08" x2="1894.56" y2="1987.08" gradientTransform="matrix(0.33, 0.48, 0.48, -0.33, -923.16, 33.06)" xlink:href="#linear-gradient-62"/><linearGradient id="linear-gradient-68" x1="1580.52" y1="1948.32" x2="1909.27" y2="1948.32" gradientTransform="matrix(0.34, 0.47, 0.47, -0.34, -913.07, 35.49)" xlink:href="#linear-gradient-62"/><linearGradient id="linear-gradient-69" x1="1557.48" y1="1886.86" x2="1886.23" y2="1886.86" gradientTransform="matrix(0.36, 0.47, 0.47, -0.36, -904.09, 52.44)" xlink:href="#linear-gradient-62"/><linearGradient id="linear-gradient-70" x1="1542.74" y1="1824.82" x2="1871.49" y2="1824.82" gradientTransform="matrix(0.37, 0.47, 0.47, -0.37, -892.44, 67.24)" xlink:href="#linear-gradient-62"/><linearGradient id="linear-gradient-71" x1="1546.53" y1="1788.87" x2="1875.28" y2="1788.87" gradientTransform="matrix(0.38, 0.47, 0.47, -0.38, -883.97, 71.22)" xlink:href="#linear-gradient-62"/><linearGradient id="linear-gradient-72" x1="1551.47" y1="1729.45" x2="1880.22" y2="1729.45" gradientTransform="matrix(0.39, 0.46, 0.46, -0.39, -868.48, 78.81)" xlink:href="#linear-gradient-62"/><linearGradient id="linear-gradient-73" x1="1533.12" y1="1693.06" x2="1861.87" y2="1693.06" gradientTransform="matrix(0.4, 0.46, 0.46, -0.4, -862.82, 89.34)" xlink:href="#linear-gradient-62"/><linearGradient id="linear-gradient-74" x1="1506.46" y1="1642.31" x2="1835.21" y2="1642.31" gradientTransform="matrix(0.41, 0.46, 0.46, -0.41, -853.49, 105.23)" xlink:href="#linear-gradient-62"/><linearGradient id="linear-gradient-75" x1="1517.28" y1="1599.44" x2="1846.03" y2="1599.44" gradientTransform="matrix(0.42, 0.45, 0.45, -0.42, -840.64, 106.75)" xlink:href="#linear-gradient-62"/><linearGradient id="linear-gradient-76" x1="1489.9" y1="1550.57" x2="1818.56" y2="1550.57" gradientTransform="matrix(0.44, 0.45, 0.45, -0.44, -830.57, 122.32)" xlink:href="#linear-gradient-62"/><linearGradient id="linear-gradient-77" x1="1462.66" y1="1503.05" x2="1791.41" y2="1503.05" gradientTransform="matrix(0.45, 0.45, 0.45, -0.45, -820, 137.73)" xlink:href="#linear-gradient-62"/><linearGradient id="linear-gradient-78" x1="1471.06" y1="1460.96" x2="1799.81" y2="1460.96" gradientTransform="matrix(0.46, 0.44, 0.44, -0.46, -806.67, 138.61)" xlink:href="#linear-gradient-62"/><linearGradient id="linear-gradient-79" x1="1443.16" y1="1415.21" x2="1771.91" y2="1415.21" gradientTransform="matrix(0.48, 0.44, 0.44, -0.48, -795.37, 153.65)" xlink:href="#linear-gradient-62"/><linearGradient id="linear-gradient-80" x1="1415.42" y1="1370.73" x2="1744.17" y2="1370.73" gradientTransform="matrix(0.49, 0.44, 0.44, -0.49, -783.6, 168.5)" xlink:href="#linear-gradient-62"/><linearGradient id="linear-gradient-81" x1="1425.05" y1="1316.71" x2="1753.8" y2="1316.71" gradientTransform="matrix(0.5, 0.43, 0.43, -0.5, -764.68, 168.44)" xlink:href="#linear-gradient-62"/><linearGradient id="linear-gradient-82" x1="1393.17" y1="1286.67" x2="1721.92" y2="1286.67" gradientTransform="matrix(0.51, 0.43, 0.43, -0.51, -757.33, 183.11)" xlink:href="#linear-gradient-62"/><linearGradient id="linear-gradient-83" x1="1364.98" y1="1245.02" x2="1693.73" y2="1245.02" gradientTransform="matrix(0.53, 0.43, 0.43, -0.53, -744.37, 197.32)" xlink:href="#linear-gradient-62"/><linearGradient id="linear-gradient-84" x1="1368.88" y1="1204.69" x2="1697.63" y2="1204.69" gradientTransform="matrix(0.54, 0.42, 0.42, -0.54, -730.2, 196.78)" xlink:href="#linear-gradient-62"/><linearGradient id="linear-gradient-85" x1="1353.63" y1="1152.31" x2="1682.38" y2="1152.31" gradientTransform="matrix(0.55, 0.41, 0.41, -0.55, -711.19, 204.86)" xlink:href="#linear-gradient-62"/><linearGradient id="linear-gradient-86" x1="1311.55" y1="1125.7" x2="1640.3" y2="1125.7" gradientTransform="matrix(0.57, 0.41, 0.41, -0.57, -702.45, 223.98)" xlink:href="#linear-gradient-62"/><linearGradient id="linear-gradient-87" x1="1300.05" y1="1070.64" x2="1628.8" y2="1070.64" gradientTransform="matrix(0.58, 0.4, 0.4, -0.58, -680.62, 229.25)" xlink:href="#linear-gradient-62"/><linearGradient id="linear-gradient-88" x1="1284.3" y1="1048.91" x2="1613.31" y2="1048.91" gradientTransform="matrix(0.59, 0.4, 0.4, -0.59, -673.16, 235.6)" xlink:href="#linear-gradient-62"/><linearGradient id="linear-gradient-89" x1="1255.36" y1="1012.52" x2="1584.11" y2="1012.52" gradientTransform="matrix(0.6, 0.39, 0.39, -0.6, -657.97, 248.27)" xlink:href="#linear-gradient-62"/><linearGradient id="linear-gradient-90" x1="1255.25" y1="974.13" x2="1584" y2="974.13" gradientTransform="matrix(0.61, 0.38, 0.38, -0.61, -643.11, 246.12)" xlink:href="#linear-gradient-62"/><linearGradient id="linear-gradient-91" x1="1225.86" y1="939.22" x2="1554.61" y2="939.22" gradientTransform="matrix(0.63, 0.38, 0.38, -0.63, -627.3, 258.21)" xlink:href="#linear-gradient-62"/><linearGradient id="linear-gradient-92" x1="1196.66" y1="905.24" x2="1525.27" y2="905.24" gradientTransform="matrix(0.64, 0.37, 0.37, -0.64, -611.05, 269.98)" xlink:href="#linear-gradient-62"/><linearGradient id="linear-gradient-93" x1="1186.24" y1="868.44" x2="1514.99" y2="868.44" gradientTransform="matrix(0.65, 0.36, 0.36, -0.65, -595.09, 271.33)" xlink:href="#linear-gradient-62"/><linearGradient id="linear-gradient-94" x1="1165.06" y1="835.36" x2="1493.81" y2="835.36" gradientTransform="matrix(0.66, 0.35, 0.35, -0.66, -579.11, 278.12)" xlink:href="#linear-gradient-62"/><linearGradient id="linear-gradient-95" x1="1135.63" y1="803.72" x2="1464.38" y2="803.72" gradientTransform="matrix(0.68, 0.35, 0.35, -0.68, -561.89, 288.94)" xlink:href="#linear-gradient-62"/><linearGradient id="linear-gradient-96" x1="1106.35" y1="772.93" x2="1435.12" y2="772.93" gradientTransform="matrix(0.69, 0.34, 0.34, -0.69, -544.26, 299.4)" xlink:href="#linear-gradient-62"/><linearGradient id="linear-gradient-97" x1="1077.24" y1="742.99" x2="1405.99" y2="742.99" gradientTransform="matrix(0.71, 0.33, 0.33, -0.71, -526.25, 309.5)" xlink:href="#linear-gradient-62"/><linearGradient id="linear-gradient-98" x1="1048.3" y1="713.85" x2="1377.05" y2="713.85" gradientTransform="matrix(0.72, 0.32, 0.32, -0.72, -507.84, 319.22)" xlink:href="#linear-gradient-62"/><linearGradient id="linear-gradient-99" x1="1042.99" y1="679.14" x2="1371.74" y2="679.14" gradientTransform="matrix(0.73, 0.31, 0.31, -0.73, -492.1, 314.35)" xlink:href="#linear-gradient-62"/><linearGradient id="linear-gradient-100" x1="1013.7" y1="651.31" x2="1342.45" y2="651.31" gradientTransform="matrix(0.74, 0.3, 0.3, -0.74, -473.2, 323.36)" xlink:href="#linear-gradient-62"/><linearGradient id="linear-gradient-101" x1="984.59" y1="624.26" x2="1313.24" y2="624.26" gradientTransform="matrix(0.76, 0.29, 0.29, -0.76, -453.94, 331.96)" xlink:href="#linear-gradient-62"/><linearGradient id="linear-gradient-102" x1="955.62" y1="597.96" x2="1284.37" y2="597.96" gradientTransform="matrix(0.77, 0.28, 0.28, -0.77, -434.32, 340.17)" xlink:href="#linear-gradient-62"/><linearGradient id="linear-gradient-103" x1="926.84" y1="572.41" x2="1255.59" y2="572.41" gradientTransform="matrix(0.78, 0.27, 0.27, -0.78, -414.38, 347.95)" xlink:href="#linear-gradient-62"/><linearGradient id="linear-gradient-104" x1="917.25" y1="548.4" x2="1246" y2="548.4" gradientTransform="matrix(0.79, 0.26, 0.26, -0.79, -402.01, 345.08)" xlink:href="#linear-gradient-62"/><linearGradient id="linear-gradient-105" x1="890" y1="515.49" x2="1218.75" y2="515.49" gradientTransform="matrix(0.8, 0.25, 0.25, -0.8, -377.96, 348.41)" xlink:href="#linear-gradient-62"/><linearGradient id="linear-gradient-106" x1="854.84" y1="482.47" x2="1183.59" y2="482.47" gradientTransform="matrix(0.82, 0.23, 0.23, -0.82, -349.73, 354.87)" xlink:href="#linear-gradient-62"/><linearGradient id="linear-gradient-107" x1="832.34" y1="468.91" x2="1161.11" y2="468.91" gradientTransform="matrix(0.83, 0.22, 0.22, -0.83, -336.28, 361.07)" xlink:href="#linear-gradient-62"/><linearGradient id="linear-gradient-108" x1="803.75" y1="446.63" x2="1132.5" y2="446.63" gradientTransform="matrix(0.84, 0.21, 0.21, -0.84, -314.98, 366.71)" xlink:href="#linear-gradient-62"/><linearGradient id="linear-gradient-109" x1="771" y1="430.4" x2="1099.75" y2="430.4" gradientTransform="matrix(0.86, 0.2, 0.2, -0.86, -293.7, 376.65)" xlink:href="#linear-gradient-62"/><linearGradient id="linear-gradient-110" x1="747.03" y1="404.02" x2="1075.78" y2="404.02" gradientTransform="matrix(0.87, 0.19, 0.19, -0.87, -271.54, 376.6)" xlink:href="#linear-gradient-62"/><linearGradient id="linear-gradient-111" x1="718.91" y1="383.67" x2="1047.66" y2="383.67" gradientTransform="matrix(0.88, 0.17, 0.17, -0.88, -249.42, 380.82)" xlink:href="#linear-gradient-62"/><linearGradient id="linear-gradient-112" x1="707.89" y1="354.73" x2="1036.64" y2="354.73" gradientTransform="matrix(0.89, 0.16, 0.16, -0.89, -233.19, 371.37)" xlink:href="#linear-gradient-62"/><linearGradient id="linear-gradient-113" x1="676.36" y1="331.63" x2="1005.11" y2="331.63" gradientTransform="matrix(0.9, 0.14, 0.14, -0.9, -206.98, 374.18)" xlink:href="#linear-gradient-62"/><linearGradient id="linear-gradient-114" x1="651.41" y1="316.85" x2="980.16" y2="316.85" gradientTransform="matrix(0.91, 0.13, 0.13, -0.91, -188.15, 377.55)" xlink:href="#linear-gradient-62"/><linearGradient id="linear-gradient-115" x1="610.2" y1="297.81" x2="938.95" y2="297.81" gradientTransform="matrix(0.93, 0.11, 0.11, -0.93, -155.53, 385.33)" xlink:href="#linear-gradient-62"/><linearGradient id="linear-gradient-116" x1="595.55" y1="281.29" x2="924.3" y2="281.29" gradientTransform="matrix(0.93, 0.1, 0.1, -0.93, -142.22, 381.68)" xlink:href="#linear-gradient-62"/><linearGradient id="linear-gradient-117" x1="567.86" y1="264.38" x2="896.61" y2="264.38" gradientTransform="matrix(0.95, 0.08, 0.08, -0.95, -118.96, 382.97)" xlink:href="#linear-gradient-62"/><linearGradient id="linear-gradient-118" x1="539.19" y1="255.08" x2="867.83" y2="255.08" gradientTransform="matrix(0.96, 0.07, 0.07, -0.96, -97.16, 389.03)" xlink:href="#linear-gradient-62"/><linearGradient id="linear-gradient-119" x1="510.25" y1="232.16" x2="838.82" y2="232.16" gradientTransform="matrix(0.97, 0.05, 0.05, -0.97, -69.84, 384.88)" xlink:href="#linear-gradient-62"/><linearGradient id="linear-gradient-120" x1="485.7" y1="216.91" x2="814.49" y2="216.91" gradientTransform="matrix(0.98, 0.03, 0.03, -0.98, -48.06, 383.61)" xlink:href="#linear-gradient-62"/><linearGradient id="linear-gradient-121" x1="460.81" y1="206.37" x2="789.56" y2="206.37" gradientTransform="matrix(0.99, 0.02, 0.02, -0.99, -27.21, 385.2)" xlink:href="#linear-gradient-62"/><linearGradient id="linear-gradient-122" x1="431.7" y1="187.91" x2="760.45" y2="187.91" gradientTransform="matrix(1, 0, 0, -1, 0, 381.32)" xlink:href="#linear-gradient-62"/></defs><title>Asset 4</title><g id="Layer_2" data-name="Layer 2"><g id="Layer_1-2" data-name="Layer 1"><polygon class="cls-1" points="164.25 293.27 253.98 241.47 253.98 137.85 164.25 86.04 74.52 137.85 74.52 241.47 164.25 293.27"/><polygon class="cls-2" points="166.08 294.31 255.79 240.4 253.96 135.75 162.42 85.01 72.71 138.92 74.54 243.56 166.08 294.31"/><polygon class="cls-3" points="167.94 295.31 257.6 239.29 253.91 133.64 160.56 84 70.91 140.03 74.59 245.68 167.94 295.31"/><polygon class="cls-4" points="169.84 296.3 259.4 238.14 253.81 131.5 158.66 83.02 69.1 141.18 74.69 247.82 169.84 296.3"/><polygon class="cls-5" points="171.77 297.26 261.2 236.94 253.68 129.34 156.73 82.06 67.3 142.37 74.83 249.98 171.77 297.26"/><polygon class="cls-6" points="173.75 298.2 263 235.71 253.5 127.17 154.75 81.12 65.5 143.61 75 252.15 173.75 298.2"/><polygon class="cls-7" points="175.75 299.11 264.79 234.42 253.29 124.97 152.75 80.21 63.71 144.9 75.21 254.35 175.75 299.11"/><polygon class="cls-8" points="177.8 300 266.58 233.1 253.03 122.76 150.7 79.32 61.92 146.22 75.47 256.56 177.8 300"/><polygon class="cls-9" points="179.88 300.86 268.36 231.72 252.74 120.53 148.62 78.46 60.14 147.59 75.76 258.79 179.88 300.86"/><polygon class="cls-10" points="181.99 301.69 270.14 230.31 252.4 118.28 146.51 77.63 58.36 149.01 76.1 261.04 181.99 301.69"/><polygon class="cls-11" points="184.15 302.49 271.91 228.84 252.02 116.02 144.35 76.83 56.59 150.47 76.48 263.3 184.15 302.49"/><polygon class="cls-12" points="186.33 303.26 273.67 227.34 251.59 113.73 142.17 76.06 54.83 151.98 76.91 265.58 186.33 303.26"/><polygon class="cls-13" points="188.55 304 275.43 225.78 251.12 111.44 139.95 75.32 53.08 153.54 77.38 267.88 188.55 304"/><polygon class="cls-14" points="190.81 304.71 277.17 224.18 250.61 109.13 137.69 74.61 51.33 155.14 77.89 270.19 190.81 304.71"/><polygon class="cls-15" points="193.1 305.39 278.9 222.53 250.05 106.81 135.4 73.93 49.6 156.78 78.45 272.51 193.1 305.39"/><polygon class="cls-16" points="195.43 306.03 280.62 220.84 249.44 104.47 133.07 73.29 47.88 158.48 79.06 274.85 195.43 306.03"/><polygon class="cls-17" points="197.79 306.64 282.33 219.1 248.78 102.12 130.71 72.68 46.17 160.22 79.72 277.2 197.79 306.64"/><polygon class="cls-18" points="200.19 307.21 284.02 217.31 248.08 99.76 128.31 72.11 44.48 162.01 80.42 279.56 200.19 307.21"/><polygon class="cls-19" points="202.62 307.75 285.7 215.47 247.33 97.39 125.88 71.57 42.8 163.84 81.17 281.93 202.62 307.75"/><polygon class="cls-20" points="205.08 308.24 287.36 213.59 246.53 95.01 123.42 71.08 41.14 165.73 81.97 284.31 205.08 308.24"/><polygon class="cls-21" points="207.58 308.7 289.01 211.66 245.68 92.61 120.92 70.62 39.49 167.66 82.82 286.7 207.58 308.7"/><polygon class="cls-22" points="210.11 309.12 290.64 209.68 244.78 90.21 118.39 70.19 37.86 169.64 83.72 289.11 210.11 309.12"/><polygon class="cls-23" points="212.67 309.5 292.25 207.65 243.83 87.8 115.83 69.82 36.25 171.67 84.67 291.51 212.67 309.5"/><polygon class="cls-24" points="215.26 309.84 293.84 205.57 242.82 85.39 113.24 69.48 34.66 173.75 85.68 293.93 215.26 309.84"/><polygon class="cls-25" points="217.89 310.14 295.41 203.44 241.77 82.97 110.61 69.18 33.09 175.87 86.73 296.35 217.89 310.14"/><polygon class="cls-26" points="220.55 310.39 296.96 201.27 240.66 80.54 107.95 68.93 31.54 178.05 87.84 298.78 220.55 310.39"/><polygon class="cls-27" points="223.24 310.6 298.48 199.05 239.49 78.11 105.26 68.72 30.02 180.27 89.01 301.21 223.24 310.6"/><polygon class="cls-28" points="225.96 310.76 299.98 196.77 238.28 75.67 102.55 68.56 28.52 182.55 90.22 303.65 225.96 310.76"/><polygon class="cls-29" points="228.7 310.88 301.46 194.45 237 73.23 99.8 68.44 27.04 184.87 91.5 306.09 228.7 310.88"/><polygon class="cls-30" points="231.48 310.95 302.91 192.08 235.67 70.79 97.02 68.37 25.59 187.24 92.83 308.53 231.48 310.95"/><polygon class="cls-31" points="234.29 310.97 304.33 189.66 234.29 68.35 94.21 68.35 24.17 189.66 94.21 310.97 234.29 310.97"/><polygon class="cls-32" points="237.12 310.94 305.72 187.19 232.85 65.91 91.38 68.38 22.78 192.13 95.65 313.41 237.12 310.94"/><polygon class="cls-33" points="239.99 310.86 307.08 184.67 231.35 63.47 88.51 68.45 21.41 194.65 97.15 315.85 239.99 310.86"/><polygon class="cls-34" points="242.88 310.74 308.42 182.1 229.79 61.03 85.62 68.58 20.08 197.22 98.71 318.29 242.88 310.74"/><polygon class="cls-35" points="245.79 310.55 309.72 179.49 228.18 58.59 82.71 68.77 18.78 199.83 100.33 320.73 245.79 310.55"/><polygon class="cls-36" points="248.74 310.32 310.99 176.82 226.5 56.16 79.76 69 17.51 202.5 102 323.16 248.74 310.32"/><polygon class="cls-37" points="251.7 310.03 312.22 174.11 224.77 53.74 76.8 69.29 16.28 205.21 103.73 325.58 251.7 310.03"/><polygon class="cls-38" points="254.69 309.68 313.42 171.34 222.97 51.32 73.81 69.64 15.08 207.97 105.53 328 254.69 309.68"/><polygon class="cls-39" points="257.71 309.28 314.58 168.53 221.12 48.91 70.79 70.03 13.92 210.79 107.38 330.41 257.71 309.28"/><polygon class="cls-40" points="260.75 308.83 315.7 165.67 219.2 46.51 67.75 70.49 12.8 213.65 109.3 332.81 260.75 308.83"/><polygon class="cls-41" points="263.81 308.31 316.79 162.76 217.22 44.11 64.69 71.01 11.71 216.56 111.28 335.21 263.81 308.31"/><polygon class="cls-42" points="266.89 307.74 317.83 159.81 215.19 41.73 61.61 71.58 10.67 219.51 113.31 337.59 266.89 307.74"/><polygon class="cls-43" points="269.99 307.1 318.83 156.8 213.09 39.36 58.51 72.22 9.67 222.52 115.42 339.96 269.99 307.1"/><polygon class="cls-44" points="273.12 306.4 319.79 153.75 210.92 37.01 55.38 72.91 8.71 225.57 117.58 342.31 273.12 306.4"/><polygon class="cls-45" points="276.26 305.65 320.7 150.65 208.69 34.66 52.24 73.67 7.8 228.67 119.81 344.65 276.26 305.65"/><polygon class="cls-46" points="279.42 304.83 321.57 147.51 206.4 32.34 49.08 74.49 6.93 231.81 122.1 346.98 279.42 304.83"/><polygon class="cls-47" points="282.59 303.94 322.39 144.31 204.05 30.03 45.91 75.38 6.11 235.01 124.45 349.29 282.59 303.94"/><polygon class="cls-48" points="285.78 302.99 323.17 141.07 201.63 27.74 42.72 76.33 5.33 238.25 126.87 351.58 285.78 302.99"/><polygon class="cls-49" points="288.99 301.98 323.89 137.79 199.15 25.47 39.51 77.34 4.61 241.53 129.35 353.85 288.99 301.98"/><polygon class="cls-50" points="292.21 300.89 324.56 134.46 196.6 23.22 36.29 78.42 3.94 244.86 131.9 356.1 292.21 300.89"/><polygon class="cls-51" points="295.45 299.75 325.19 131.08 193.99 21 33.05 79.57 3.31 248.24 134.51 358.32 295.45 299.75"/><polygon class="cls-52" points="298.69 298.53 325.75 127.66 191.31 18.8 29.81 80.79 2.75 251.66 137.19 360.52 298.69 298.53"/><polygon class="cls-53" points="301.95 297.24 326.27 124.2 188.57 16.62 26.55 82.08 2.23 255.12 139.93 362.7 301.95 297.24"/><polygon class="cls-54" points="305.21 295.88 326.73 120.69 185.76 14.47 23.29 83.44 1.77 258.63 142.74 364.85 305.21 295.88"/><polygon class="cls-55" points="308.49 294.45 327.13 117.14 182.89 12.35 20.01 84.86 1.38 262.18 145.61 366.97 308.49 294.45"/><polygon class="cls-56" points="311.77 292.95 327.47 113.55 179.95 10.26 16.73 86.36 1.03 265.77 148.55 369.06 311.77 292.95"/><polygon class="cls-57" points="315.06 291.38 327.75 109.92 176.94 8.19 13.44 87.94 0.75 269.4 151.56 371.13 315.06 291.38"/><polygon class="cls-58" points="318.35 289.74 327.97 106.24 173.87 6.17 10.15 89.58 0.53 273.08 154.63 373.15 318.35 289.74"/><polygon class="cls-59" points="321.65 288.01 328.13 102.53 170.73 4.17 6.85 91.31 0.37 276.8 157.77 375.15 321.65 288.01"/><polygon class="cls-60" points="324.95 286.22 328.22 98.77 167.52 2.21 3.55 93.1 0.28 280.55 160.98 377.11 324.95 286.22"/><polygon class="cls-61" points="328.25 284.35 328.25 94.97 164.25 0.29 0.25 94.97 0.25 284.35 164.25 379.03 328.25 284.35"/><g id="Layer_2-2" data-name="Layer 2"><g id="Layer_1-2-2" data-name="Layer 1-2"><polygon class="cls-62" points="596.08 297.02 685.81 245.21 685.81 141.6 596.08 89.79 506.34 141.6 506.34 245.21 596.08 297.02"/><polygon class="cls-63" points="597.9 298.05 687.61 244.14 685.79 139.5 594.25 88.76 504.53 142.66 506.36 247.31 597.9 298.05"/><polygon class="cls-64" points="599.76 299.06 689.42 243.04 685.73 137.38 592.39 87.75 502.73 143.77 506.42 249.43 599.76 299.06"/><polygon class="cls-65" points="601.66 300.04 691.22 241.88 685.63 135.24 590.49 86.76 500.93 144.92 506.52 251.56 601.66 300.04"/><polygon class="cls-66" points="603.6 301.01 693.02 240.69 685.5 133.09 588.55 85.8 499.13 146.12 506.65 253.72 603.6 301.01"/><polygon class="cls-67" points="605.57 301.95 694.82 239.45 685.33 130.91 586.58 84.86 497.33 147.36 506.82 255.9 605.57 301.95"/><polygon class="cls-68" points="607.58 302.86 696.62 238.17 685.11 128.71 584.57 83.95 495.53 148.64 507.04 258.09 607.58 302.86"/><polygon class="cls-69" points="609.62 303.74 698.4 236.84 684.86 126.5 582.53 83.07 493.75 149.97 507.29 260.31 609.62 303.74"/><polygon class="cls-70" points="611.7 304.6 700.19 235.47 684.56 124.27 580.45 82.21 491.96 151.34 507.59 262.54 611.7 304.6"/><polygon class="cls-71" points="613.82 305.43 701.97 234.05 684.22 122.02 578.33 81.38 490.18 152.76 507.93 264.78 613.82 305.43"/><polygon class="cls-72" points="615.97 306.23 703.74 232.59 683.84 119.76 576.18 80.57 488.41 154.22 508.31 267.05 615.97 306.23"/><polygon class="cls-73" points="618.16 307 705.5 231.08 683.42 117.48 573.99 79.8 486.65 155.73 508.73 269.33 618.16 307"/><polygon class="cls-74" points="620.38 307.75 707.25 229.53 682.95 115.18 571.77 79.06 484.9 157.28 509.2 271.62 620.38 307.75"/><polygon class="cls-75" points="622.64 308.46 708.99 227.93 682.43 112.88 569.51 78.35 483.16 158.88 509.72 273.93 622.64 308.46"/><polygon class="cls-76" points="624.93 309.13 710.72 226.28 681.87 110.55 567.22 77.68 481.43 160.53 510.28 276.26 624.93 309.13"/><polygon class="cls-77" points="627.26 309.77 712.45 224.59 681.26 108.21 564.89 77.03 479.71 162.22 510.89 278.59 627.26 309.77"/><polygon class="cls-78" points="629.62 310.38 714.15 222.84 680.61 105.87 562.53 76.43 478 163.96 511.54 280.94 629.62 310.38"/><polygon class="cls-79" points="632.01 310.95 715.85 221.06 679.91 103.51 560.14 75.85 476.3 165.75 512.24 283.3 632.01 310.95"/><polygon class="cls-80" points="634.44 311.49 717.52 219.22 679.16 101.13 557.71 75.32 474.62 167.59 512.99 285.67 634.44 311.49"/><polygon class="cls-81" points="636.91 311.99 719.19 217.34 678.36 98.75 555.24 74.82 472.96 169.47 513.79 288.06 636.91 311.99"/><polygon class="cls-82" points="639.4 312.45 720.83 215.4 677.51 96.36 552.75 74.36 471.32 171.41 514.64 290.45 639.4 312.45"/><polygon class="cls-83" points="641.93 312.87 722.46 213.42 676.61 93.96 550.22 73.94 469.69 173.39 515.54 292.85 641.93 312.87"/><polygon class="cls-84" points="644.49 313.25 724.07 211.39 675.65 91.55 547.65 73.56 468.08 175.41 516.5 295.26 644.49 313.25"/><polygon class="cls-85" points="647.09 313.59 725.66 209.32 674.65 89.13 545.06 73.22 466.49 177.49 517.5 297.67 647.09 313.59"/><polygon class="cls-86" points="649.72 313.88 727.23 207.19 673.59 86.71 542.43 72.93 464.92 179.62 518.56 300.1 649.72 313.88"/><polygon class="cls-87" points="652.37 314.14 728.78 205.01 672.48 84.28 539.78 72.67 463.37 181.79 519.67 302.53 652.37 314.14"/><polygon class="cls-88" points="655.06 314.34 730.31 202.79 671.32 81.85 537.09 72.46 461.84 184.02 520.83 304.96 655.06 314.34"/><polygon class="cls-89" points="657.78 314.51 731.81 200.52 670.1 79.41 534.37 72.3 460.34 186.29 522.05 307.39 657.78 314.51"/><polygon class="cls-90" points="660.53 314.62 733.28 198.19 668.83 76.98 531.62 72.18 458.87 188.61 523.32 309.83 660.53 314.62"/><polygon class="cls-91" points="663.31 314.69 734.73 195.82 667.5 74.54 528.84 72.11 457.42 190.98 524.65 312.27 663.31 314.69"/><polygon class="cls-92" points="666.11 314.72 736.15 193.4 666.11 72.09 526.04 72.09 456 193.4 526.04 314.72 666.11 314.72"/><polygon class="cls-93" points="668.95 314.69 737.55 190.94 664.67 69.65 523.2 72.12 454.6 195.87 527.48 317.16 668.95 314.69"/><polygon class="cls-94" points="671.81 314.61 738.91 188.42 663.17 67.21 520.34 72.2 453.24 198.39 528.98 319.6 671.81 314.61"/><polygon class="cls-95" points="674.7 314.48 740.24 185.85 661.62 64.77 517.45 72.33 451.91 200.96 530.53 322.04 674.7 314.48"/><polygon class="cls-96" points="677.62 314.3 741.54 183.23 660 62.34 514.53 72.51 450.61 203.58 532.15 324.47 677.62 314.3"/><polygon class="cls-97" points="680.56 314.06 742.81 180.57 658.33 59.91 511.59 72.74 449.34 206.24 533.83 326.9 680.56 314.06"/><polygon class="cls-98" points="683.53 313.77 744.05 177.85 656.59 57.48 508.62 73.04 448.11 208.96 535.56 329.33 683.53 313.77"/><polygon class="cls-99" points="686.52 313.43 745.24 175.09 654.8 55.06 505.63 73.38 446.91 211.72 537.35 331.74 686.52 313.43"/><polygon class="cls-100" points="689.54 313.03 746.4 172.28 652.94 52.65 502.61 73.78 445.75 214.53 539.21 334.16 689.54 313.03"/><polygon class="cls-101" points="692.57 312.57 747.53 169.42 651.03 50.25 499.58 74.24 444.62 217.39 541.12 336.56 692.57 312.57"/><polygon class="cls-102" points="695.64 312.05 748.61 166.51 649.05 47.86 496.51 74.75 443.54 220.3 543.1 338.95 695.64 312.05"/><polygon class="cls-103" points="698.72 311.48 749.65 163.55 647.01 45.48 493.43 75.33 442.5 223.26 545.14 341.33 698.72 311.48"/><polygon class="cls-104" points="701.82 310.85 750.65 160.55 644.91 43.11 490.33 75.96 441.5 226.26 547.24 343.7 701.82 310.85"/><polygon class="cls-105" points="704.94 310.15 751.61 157.5 642.75 40.75 487.21 76.66 440.54 229.31 549.4 346.06 704.94 310.15"/><polygon class="cls-106" points="708.08 309.39 752.53 154.4 640.52 38.41 484.07 77.42 439.62 232.41 551.63 348.4 708.08 309.39"/><polygon class="cls-107" points="711.24 308.57 753.39 151.25 638.23 36.08 480.91 78.24 438.75 235.56 553.92 350.72 711.24 308.57"/><polygon class="cls-108" points="714.42 307.69 754.22 148.06 635.88 33.78 477.73 79.12 437.93 238.75 556.28 353.03 714.42 307.69"/><polygon class="cls-109" points="717.61 306.74 754.99 144.82 633.46 31.49 474.54 80.07 437.16 241.99 558.69 355.32 717.61 306.74"/><polygon class="cls-110" points="720.82 305.72 755.71 141.53 630.97 29.22 471.33 81.09 436.44 245.27 561.18 357.59 720.82 305.72"/><polygon class="cls-111" points="724.04 304.64 756.39 138.2 628.43 26.97 468.11 82.17 435.76 248.6 563.72 359.84 724.04 304.64"/><polygon class="cls-112" points="727.27 303.49 757.01 134.83 625.82 24.74 464.88 83.32 435.14 251.98 566.33 362.07 727.27 303.49"/><polygon class="cls-113" points="730.52 302.27 757.58 131.41 623.14 22.54 461.63 84.54 434.57 255.4 569.01 364.27 730.52 302.27"/><polygon class="cls-114" points="733.77 300.98 758.09 127.94 620.39 20.36 458.38 85.82 434.06 258.86 571.76 366.44 733.77 300.98"/><polygon class="cls-115" points="737.04 299.63 758.55 124.44 617.59 18.21 455.11 87.18 433.6 262.37 574.56 368.59 737.04 299.63"/><polygon class="cls-116" points="740.31 298.2 758.95 120.89 614.71 16.09 451.84 88.61 433.2 265.92 577.44 370.72 740.31 298.2"/><polygon class="cls-117" points="743.6 296.7 759.29 117.29 611.77 14 448.55 90.11 432.86 269.51 580.38 372.81 743.6 296.7"/><polygon class="cls-118" points="746.88 295.13 759.57 113.66 608.76 11.94 445.27 91.68 432.58 273.15 583.39 374.87 746.88 295.13"/><polygon class="cls-119" points="750.18 293.48 759.79 109.99 605.69 9.91 441.97 93.33 432.36 276.82 586.46 376.9 750.18 293.48"/><polygon class="cls-120" points="753.47 291.76 759.95 106.27 602.55 7.92 438.67 95.05 432.2 280.54 589.6 378.89 753.47 291.76"/><polygon class="cls-121" points="756.77 289.96 760.05 102.51 599.35 5.95 435.38 96.85 432.1 284.29 592.8 380.85 756.77 289.96"/><polygon class="cls-122" points="760.08 288.09 760.08 98.72 596.08 4.03 432.08 98.72 432.08 288.09 596.08 382.78 760.08 288.09"/></g></g></g></g></svg>