<svg xmlns="http://www.w3.org/2000/svg" xmlns:xlink="http://www.w3.org/1999/xlink" viewBox="0 0 328.5 379.32"><defs><style>.cls-1,.cls-10,.cls-11,.cls-12,.cls-13,.cls-14,.cls-15,.cls-16,.cls-17,.cls-18,.cls-19,.cls-2,.cls-20,.cls-21,.cls-22,.cls-23,.cls-24,.cls-25,.cls-26,.cls-27,.cls-28,.cls-29,.cls-3,.cls-30,.cls-31,.cls-32,.cls-33,.cls-34,.cls-35,.cls-36,.cls-37,.cls-38,.cls-39,.cls-4,.cls-40,.cls-41,.cls-42,.cls-43,.cls-44,.cls-45,.cls-46,.cls-47,.cls-48,.cls-49,.cls-5,.cls-50,.cls-51,.cls-52,.cls-53,.cls-54,.cls-55,.cls-56,.cls-57,.cls-58,.cls-59,.cls-6,.cls-60,.cls-61,.cls-7,.cls-8,.cls-9{fill:none;stroke-miterlimit:10;stroke-width:0.5px;}.cls-1{stroke:url(#linear-gradient);}.cls-2{stroke:url(#linear-gradient-2);}.cls-3{stroke:url(#linear-gradient-3);}.cls-4{stroke:url(#linear-gradient-4);}.cls-5{stroke:url(#linear-gradient-5);}.cls-6{stroke:url(#linear-gradient-6);}.cls-7{stroke:url(#linear-gradient-7);}.cls-8{stroke:url(#linear-gradient-8);}.cls-9{stroke:url(#linear-gradient-9);}.cls-10{stroke:url(#linear-gradient-10);}.cls-11{stroke:url(#linear-gradient-11);}.cls-12{stroke:url(#linear-gradient-12);}.cls-13{stroke:url(#linear-gradient-13);}.cls-14{stroke:url(#linear-gradient-14);}.cls-15{stroke:url(#linear-gradient-15);}.cls-16{stroke:url(#linear-gradient-16);}.cls-17{stroke:url(#linear-gradient-17);}.cls-18{stroke:url(#linear-gradient-18);}.cls-19{stroke:url(#linear-gradient-19);}.cls-20{stroke:url(#linear-gradient-20);}.cls-21{stroke:url(#linear-gradient-21);}.cls-22{stroke:url(#linear-gradient-22);}.cls-23{stroke:url(#linear-gradient-23);}.cls-24{stroke:url(#linear-gradient-24);}.cls-25{stroke:url(#linear-gradient-25);}.cls-26{stroke:url(#linear-gradient-26);}.cls-27{stroke:url(#linear-gradient-27);}.cls-28{stroke:url(#linear-gradient-28);}.cls-29{stroke:url(#linear-gradient-29);}.cls-30{stroke:url(#linear-gradient-30);}.cls-31{stroke:url(#linear-gradient-31);}.cls-32{stroke:url(#linear-gradient-32);}.cls-33{stroke:url(#linear-gradient-33);}.cls-34{stroke:url(#linear-gradient-34);}.cls-35{stroke:url(#linear-gradient-35);}.cls-36{stroke:url(#linear-gradient-36);}.cls-37{stroke:url(#linear-gradient-37);}.cls-38{stroke:url(#linear-gradient-38);}.cls-39{stroke:url(#linear-gradient-39);}.cls-40{stroke:url(#linear-gradient-40);}.cls-41{stroke:url(#linear-gradient-41);}.cls-42{stroke:url(#linear-gradient-42);}.cls-43{stroke:url(#linear-gradient-43);}.cls-44{stroke:url(#linear-gradient-44);}.cls-45{stroke:url(#linear-gradient-45);}.cls-46{stroke:url(#linear-gradient-46);}.cls-47{stroke:url(#linear-gradient-47);}.cls-48{stroke:url(#linear-gradient-48);}.cls-49{stroke:url(#linear-gradient-49);}.cls-50{stroke:url(#linear-gradient-50);}.cls-51{stroke:url(#linear-gradient-51);}.cls-52{stroke:url(#linear-gradient-52);}.cls-53{stroke:url(#linear-gradient-53);}.cls-54{stroke:url(#linear-gradient-54);}.cls-55{stroke:url(#linear-gradient-55);}.cls-56{stroke:url(#linear-gradient-56);}.cls-57{stroke:url(#linear-gradient-57);}.cls-58{stroke:url(#linear-gradient-58);}.cls-59{stroke:url(#linear-gradient-59);}.cls-60{stroke:url(#linear-gradient-60);}.cls-61{stroke:url(#linear-gradient-61);}</style><linearGradient id="linear-gradient" y1="189.66" x2="328.5" y2="189.66" gradientTransform="matrix(0.27, 0.47, -0.47, 0.27, 209.19, 59.94)" gradientUnits="userSpaceOnUse"><stop offset="0" stop-color="lime"/><stop offset="0.04" stop-color="#00d809"/><stop offset="0.09" stop-color="#00b412"/><stop offset="0.15" stop-color="#01941a"/><stop offset="0.21" stop-color="#017821"/><stop offset="0.28" stop-color="#016226"/><stop offset="0.36" stop-color="#01512a"/><stop offset="0.46" stop-color="#01462d"/><stop offset="0.61" stop-color="#013f2f"/><stop offset="1" stop-color="#013d2f"/></linearGradient><linearGradient id="linear-gradient-2" x1="0" y1="189.66" x2="328.5" y2="189.66" gradientTransform="translate(207.35 57.86) rotate(59) scale(0.55)" xlink:href="#linear-gradient"/><linearGradient id="linear-gradient-3" x1="0" y1="189.66" x2="328.5" y2="189.66" gradientTransform="translate(205.45 55.79) rotate(58) scale(0.56)" xlink:href="#linear-gradient"/><linearGradient id="linear-gradient-4" x1="0" y1="189.66" x2="328.5" y2="189.66" gradientTransform="translate(203.5 53.73) rotate(57) scale(0.56)" xlink:href="#linear-gradient"/><linearGradient id="linear-gradient-5" x1="0" y1="189.66" x2="328.5" y2="189.66" gradientTransform="translate(201.49 51.69) rotate(56) scale(0.57)" xlink:href="#linear-gradient"/><linearGradient id="linear-gradient-6" x1="0" y1="189.66" x2="328.5" y2="189.66" gradientTransform="translate(199.43 49.66) rotate(55) scale(0.58)" xlink:href="#linear-gradient"/><linearGradient id="linear-gradient-7" x1="0" y1="189.66" x2="328.5" y2="189.66" gradientTransform="matrix(0.34, 0.47, -0.47, 0.34, 197.31, 47.65)" xlink:href="#linear-gradient"/><linearGradient id="linear-gradient-8" x1="0" y1="189.66" x2="328.5" y2="189.66" gradientTransform="translate(195.14 45.65) rotate(53) scale(0.59)" xlink:href="#linear-gradient"/><linearGradient id="linear-gradient-9" x1="0" y1="189.66" x2="328.5" y2="189.66" gradientTransform="matrix(0.37, 0.47, -0.47, 0.37, 192.91, 43.67)" xlink:href="#linear-gradient"/><linearGradient id="linear-gradient-10" x1="0" y1="189.66" x2="328.5" y2="189.66" gradientTransform="translate(190.62 41.72) rotate(51) scale(0.6)" xlink:href="#linear-gradient"/><linearGradient id="linear-gradient-11" x1="0" y1="189.66" x2="328.5" y2="189.66" gradientTransform="matrix(0.39, 0.46, -0.46, 0.39, 188.27, 39.78)" xlink:href="#linear-gradient"/><linearGradient id="linear-gradient-12" x1="0" y1="189.66" x2="328.5" y2="189.66" gradientTransform="translate(185.87 37.86) rotate(49) scale(0.61)" xlink:href="#linear-gradient"/><linearGradient id="linear-gradient-13" x1="0" y1="189.66" x2="328.5" y2="189.66" gradientTransform="translate(183.41 35.97) rotate(48) scale(0.62)" xlink:href="#linear-gradient"/><linearGradient id="linear-gradient-14" x1="0" y1="189.66" x2="328.5" y2="189.66" gradientTransform="translate(180.89 34.11) rotate(47) scale(0.62)" xlink:href="#linear-gradient"/><linearGradient id="linear-gradient-15" x1="0" y1="189.66" x2="328.5" y2="189.66" gradientTransform="translate(178.32 32.27) rotate(46) scale(0.63)" xlink:href="#linear-gradient"/><linearGradient id="linear-gradient-16" x1="0" y1="189.66" x2="328.5" y2="189.66" gradientTransform="translate(175.68 30.45) rotate(45) scale(0.64)" xlink:href="#linear-gradient"/><linearGradient id="linear-gradient-17" x1="0" y1="189.66" x2="328.5" y2="189.66" gradientTransform="translate(172.99 28.67) rotate(44) scale(0.64)" xlink:href="#linear-gradient"/><linearGradient id="linear-gradient-18" x1="0" y1="189.66" x2="328.5" y2="189.66" gradientTransform="translate(170.24 26.91) rotate(43) scale(0.65)" xlink:href="#linear-gradient"/><linearGradient id="linear-gradient-19" x1="0" y1="189.66" x2="328.5" y2="189.66" gradientTransform="translate(167.43 25.19) rotate(42) scale(0.66)" xlink:href="#linear-gradient"/><linearGradient id="linear-gradient-20" x1="0" y1="189.66" x2="328.5" y2="189.66" gradientTransform="matrix(0.5, 0.43, -0.43, 0.5, 164.56, 23.5)" xlink:href="#linear-gradient"/><linearGradient id="linear-gradient-21" x1="0" y1="189.66" x2="328.5" y2="189.66" gradientTransform="translate(161.63 21.84) rotate(40) scale(0.67)" xlink:href="#linear-gradient"/><linearGradient id="linear-gradient-22" x1="0" y1="189.66" x2="328.5" y2="189.66" gradientTransform="translate(158.65 20.21) rotate(39) scale(0.68)" xlink:href="#linear-gradient"/><linearGradient id="linear-gradient-23" x1="0" y1="189.66" x2="328.5" y2="189.66" gradientTransform="translate(155.61 18.63) rotate(38) scale(0.68)" xlink:href="#linear-gradient"/><linearGradient id="linear-gradient-24" x1="0" y1="189.66" x2="328.5" y2="189.66" gradientTransform="matrix(0.55, 0.41, -0.41, 0.55, 152.5, 17.08)" xlink:href="#linear-gradient"/><linearGradient id="linear-gradient-25" x1="0" y1="189.66" x2="328.5" y2="189.66" gradientTransform="translate(149.35 15.57) rotate(36) scale(0.7)" xlink:href="#linear-gradient"/><linearGradient id="linear-gradient-26" x1="0" y1="189.66" x2="328.5" y2="189.66" gradientTransform="matrix(0.58, 0.4, -0.4, 0.58, 146.13, 14.1)" xlink:href="#linear-gradient"/><linearGradient id="linear-gradient-27" x1="0" y1="189.66" x2="328.5" y2="189.66" gradientTransform="translate(142.85 12.67) rotate(34) scale(0.71)" xlink:href="#linear-gradient"/><linearGradient id="linear-gradient-28" x1="0" y1="189.66" x2="328.5" y2="189.66" gradientTransform="translate(139.52 11.29) rotate(33) scale(0.72)" xlink:href="#linear-gradient"/><linearGradient id="linear-gradient-29" x1="0" y1="189.66" x2="328.5" y2="189.66" gradientTransform="translate(136.13 9.95) rotate(32) scale(0.72)" xlink:href="#linear-gradient"/><linearGradient id="linear-gradient-30" x1="0" y1="189.66" x2="328.5" y2="189.66" gradientTransform="translate(132.68 8.66) rotate(31) scale(0.73)" xlink:href="#linear-gradient"/><linearGradient id="linear-gradient-31" x1="0" y1="189.66" x2="328.5" y2="189.66" gradientTransform="translate(129.18 7.42) rotate(30) scale(0.74)" xlink:href="#linear-gradient"/><linearGradient id="linear-gradient-32" x1="0" y1="189.66" x2="328.5" y2="189.66" gradientTransform="matrix(0.65, 0.36, -0.36, 0.65, 125.62, 6.22)" xlink:href="#linear-gradient"/><linearGradient id="linear-gradient-33" x1="0" y1="189.66" x2="328.5" y2="189.66" gradientTransform="translate(122 5.08) rotate(28) scale(0.75)" xlink:href="#linear-gradient"/><linearGradient id="linear-gradient-34" x1="0" y1="189.66" x2="328.5" y2="189.66" gradientTransform="translate(118.32 3.99) rotate(27) scale(0.76)" xlink:href="#linear-gradient"/><linearGradient id="linear-gradient-35" x1="0" y1="189.66" x2="328.5" y2="189.66" gradientTransform="translate(114.59 2.95) rotate(26) scale(0.77)" xlink:href="#linear-gradient"/><linearGradient id="linear-gradient-36" x1="0" y1="189.66" x2="328.5" y2="189.66" gradientTransform="translate(110.81 1.97) rotate(25) scale(0.78)" xlink:href="#linear-gradient"/><linearGradient id="linear-gradient-37" x1="0" y1="189.66" x2="328.5" y2="189.66" gradientTransform="translate(106.97 1.04) rotate(24) scale(0.79)" xlink:href="#linear-gradient"/><linearGradient id="linear-gradient-38" x1="0" y1="189.66" x2="328.5" y2="189.66" gradientTransform="translate(103.07 0.18) rotate(23) scale(0.79)" xlink:href="#linear-gradient"/><linearGradient id="linear-gradient-39" x1="0" y1="189.66" x2="328.5" y2="189.66" gradientTransform="translate(99.12 -0.63) rotate(22) scale(0.8)" xlink:href="#linear-gradient"/><linearGradient id="linear-gradient-40" x1="0" y1="189.66" x2="328.5" y2="189.66" gradientTransform="translate(95.12 -1.37) rotate(21) scale(0.81)" xlink:href="#linear-gradient"/><linearGradient id="linear-gradient-41" x1="0" y1="189.66" x2="328.5" y2="189.66" gradientTransform="translate(91.07 -2.06) rotate(20) scale(0.82)" xlink:href="#linear-gradient"/><linearGradient id="linear-gradient-42" x1="0" y1="189.66" x2="328.5" y2="189.66" gradientTransform="translate(86.96 -2.67) rotate(19) scale(0.83)" xlink:href="#linear-gradient"/><linearGradient id="linear-gradient-43" x1="0" y1="189.66" x2="328.5" y2="189.66" gradientTransform="matrix(0.79, 0.26, -0.26, 0.79, 82.8, -3.22)" xlink:href="#linear-gradient"/><linearGradient id="linear-gradient-44" x1="0" y1="189.66" x2="328.5" y2="189.66" gradientTransform="translate(78.59 -3.71) rotate(17) scale(0.84)" xlink:href="#linear-gradient"/><linearGradient id="linear-gradient-45" x1="0" y1="189.66" x2="328.5" y2="189.66" gradientTransform="matrix(0.82, 0.23, -0.23, 0.82, 74.33, -4.12)" xlink:href="#linear-gradient"/><linearGradient id="linear-gradient-46" x1="0" y1="189.66" x2="328.5" y2="189.66" gradientTransform="translate(70.02 -4.46) rotate(15) scale(0.86)" xlink:href="#linear-gradient"/><linearGradient id="linear-gradient-47" x1="0" y1="189.66" x2="328.5" y2="189.66" gradientTransform="translate(65.66 -4.73) rotate(14) scale(0.87)" xlink:href="#linear-gradient"/><linearGradient id="linear-gradient-48" x1="0" y1="189.66" x2="328.5" y2="189.66" gradientTransform="matrix(0.86, 0.2, -0.2, 0.86, 61.25, -4.93)" xlink:href="#linear-gradient"/><linearGradient id="linear-gradient-49" x1="0" y1="189.66" x2="328.5" y2="189.66" gradientTransform="translate(56.8 -5.05) rotate(12) scale(0.89)" xlink:href="#linear-gradient"/><linearGradient id="linear-gradient-50" x1="0" y1="189.66" x2="328.5" y2="189.66" gradientTransform="translate(52.29 -5.09) rotate(11) scale(0.9)" xlink:href="#linear-gradient"/><linearGradient id="linear-gradient-51" x1="0" y1="189.66" x2="328.5" y2="189.66" gradientTransform="translate(47.75 -5.05) rotate(10) scale(0.9)" xlink:href="#linear-gradient"/><linearGradient id="linear-gradient-52" x1="0" y1="189.66" x2="328.5" y2="189.66" gradientTransform="matrix(0.9, 0.14, -0.14, 0.9, 43.16, -4.94)" xlink:href="#linear-gradient"/><linearGradient id="linear-gradient-53" x1="0" y1="189.66" x2="328.5" y2="189.66" gradientTransform="translate(38.52 -4.74) rotate(8) scale(0.92)" xlink:href="#linear-gradient"/><linearGradient id="linear-gradient-54" x1="0" y1="189.66" x2="328.5" y2="189.66" gradientTransform="matrix(0.93, 0.11, -0.11, 0.93, 33.84, -4.46)" xlink:href="#linear-gradient"/><linearGradient id="linear-gradient-55" x1="0" y1="189.66" x2="328.5" y2="189.66" gradientTransform="translate(29.12 -4.09) rotate(6) scale(0.94)" xlink:href="#linear-gradient"/><linearGradient id="linear-gradient-56" x1="0" y1="189.66" x2="328.5" y2="189.66" gradientTransform="translate(24.36 -3.63) rotate(5) scale(0.95)" xlink:href="#linear-gradient"/><linearGradient id="linear-gradient-57" x1="0" y1="189.66" x2="328.5" y2="189.66" gradientTransform="matrix(0.96, 0.07, -0.07, 0.96, 19.57, -3.09)" xlink:href="#linear-gradient"/><linearGradient id="linear-gradient-58" x1="0" y1="189.66" x2="328.5" y2="189.66" gradientTransform="matrix(0.97, 0.05, -0.05, 0.97, 14.73, -2.46)" xlink:href="#linear-gradient"/><linearGradient id="linear-gradient-59" x1="0" y1="189.66" x2="328.5" y2="189.66" gradientTransform="translate(9.85 -1.73) rotate(2) scale(0.98)" xlink:href="#linear-gradient"/><linearGradient id="linear-gradient-60" x1="0" y1="189.66" x2="328.5" y2="189.66" gradientTransform="matrix(0.99, 0.02, -0.02, 0.99, 4.94, -0.91)" xlink:href="#linear-gradient"/><linearGradient id="linear-gradient-61" x1="0" y1="189.66" x2="328.5" y2="189.66" gradientTransform="matrix(1, 0, 0, 1, 0, 0)" xlink:href="#linear-gradient"/></defs><title>Asset 3</title><g id="Layer_2" data-name="Layer 2"><g id="Layer_1-2" data-name="Layer 1"><polygon class="cls-1" points="164.25 293.27 253.98 241.47 253.98 137.85 164.25 86.04 74.52 137.85 74.52 241.47 164.25 293.27"/><polygon class="cls-2" points="166.08 294.31 255.79 240.4 253.96 135.75 162.42 85.01 72.71 138.92 74.54 243.56 166.08 294.31"/><polygon class="cls-3" points="167.94 295.31 257.6 239.29 253.91 133.64 160.56 84 70.91 140.03 74.59 245.68 167.94 295.31"/><polygon class="cls-4" points="169.84 296.3 259.4 238.14 253.81 131.5 158.66 83.02 69.1 141.18 74.69 247.82 169.84 296.3"/><polygon class="cls-5" points="171.77 297.26 261.2 236.94 253.68 129.34 156.73 82.06 67.3 142.37 74.83 249.98 171.77 297.26"/><polygon class="cls-6" points="173.75 298.2 263 235.71 253.5 127.17 154.75 81.12 65.5 143.61 75 252.15 173.75 298.2"/><polygon class="cls-7" points="175.75 299.11 264.79 234.42 253.29 124.97 152.75 80.21 63.71 144.9 75.21 254.35 175.75 299.11"/><polygon class="cls-8" points="177.8 300 266.58 233.1 253.03 122.76 150.7 79.32 61.92 146.22 75.47 256.56 177.8 300"/><polygon class="cls-9" points="179.88 300.86 268.36 231.72 252.74 120.53 148.62 78.46 60.14 147.59 75.76 258.79 179.88 300.86"/><polygon class="cls-10" points="181.99 301.69 270.14 230.31 252.4 118.28 146.51 77.63 58.36 149.01 76.1 261.04 181.99 301.69"/><polygon class="cls-11" points="184.15 302.49 271.91 228.84 252.02 116.02 144.35 76.83 56.59 150.47 76.48 263.3 184.15 302.49"/><polygon class="cls-12" points="186.33 303.26 273.67 227.34 251.59 113.73 142.17 76.06 54.83 151.98 76.91 265.58 186.33 303.26"/><polygon class="cls-13" points="188.55 304 275.43 225.78 251.12 111.44 139.95 75.32 53.08 153.54 77.38 267.88 188.55 304"/><polygon class="cls-14" points="190.81 304.71 277.17 224.18 250.61 109.13 137.69 74.61 51.33 155.14 77.89 270.19 190.81 304.71"/><polygon class="cls-15" points="193.1 305.39 278.9 222.53 250.05 106.81 135.4 73.93 49.6 156.78 78.45 272.51 193.1 305.39"/><polygon class="cls-16" points="195.43 306.03 280.62 220.84 249.44 104.47 133.07 73.29 47.88 158.48 79.06 274.85 195.43 306.03"/><polygon class="cls-17" points="197.79 306.64 282.33 219.1 248.78 102.12 130.71 72.68 46.17 160.22 79.72 277.2 197.79 306.64"/><polygon class="cls-18" points="200.19 307.21 284.02 217.31 248.08 99.76 128.31 72.11 44.48 162.01 80.42 279.56 200.19 307.21"/><polygon class="cls-19" points="202.62 307.75 285.7 215.47 247.33 97.39 125.88 71.57 42.8 163.84 81.17 281.93 202.62 307.75"/><polygon class="cls-20" points="205.08 308.24 287.36 213.59 246.53 95.01 123.42 71.08 41.14 165.73 81.97 284.31 205.08 308.24"/><polygon class="cls-21" points="207.58 308.7 289.01 211.66 245.68 92.61 120.92 70.62 39.49 167.66 82.82 286.7 207.58 308.7"/><polygon class="cls-22" points="210.11 309.12 290.64 209.68 244.78 90.21 118.39 70.19 37.86 169.64 83.72 289.11 210.11 309.12"/><polygon class="cls-23" points="212.67 309.5 292.25 207.65 243.83 87.8 115.83 69.82 36.25 171.67 84.67 291.51 212.67 309.5"/><polygon class="cls-24" points="215.26 309.84 293.84 205.57 242.82 85.39 113.24 69.48 34.66 173.75 85.68 293.93 215.26 309.84"/><polygon class="cls-25" points="217.89 310.14 295.41 203.44 241.77 82.97 110.61 69.18 33.09 175.87 86.73 296.35 217.89 310.14"/><polygon class="cls-26" points="220.55 310.39 296.96 201.27 240.66 80.54 107.95 68.93 31.54 178.05 87.84 298.78 220.55 310.39"/><polygon class="cls-27" points="223.24 310.6 298.48 199.05 239.49 78.11 105.26 68.72 30.02 180.27 89.01 301.21 223.24 310.6"/><polygon class="cls-28" points="225.96 310.76 299.98 196.77 238.28 75.67 102.55 68.56 28.52 182.55 90.22 303.65 225.96 310.76"/><polygon class="cls-29" points="228.7 310.88 301.46 194.45 237 73.23 99.8 68.44 27.04 184.87 91.5 306.09 228.7 310.88"/><polygon class="cls-30" points="231.48 310.95 302.91 192.08 235.67 70.79 97.02 68.37 25.59 187.24 92.83 308.53 231.48 310.95"/><polygon class="cls-31" points="234.29 310.97 304.33 189.66 234.29 68.35 94.21 68.35 24.17 189.66 94.21 310.97 234.29 310.97"/><polygon class="cls-32" points="237.12 310.94 305.72 187.19 232.85 65.91 91.38 68.38 22.78 192.13 95.65 313.41 237.12 310.94"/><polygon class="cls-33" points="239.99 310.86 307.08 184.67 231.35 63.47 88.51 68.45 21.41 194.65 97.15 315.85 239.99 310.86"/><polygon class="cls-34" points="242.88 310.74 308.42 182.1 229.79 61.03 85.62 68.58 20.08 197.22 98.71 318.29 242.88 310.74"/><polygon class="cls-35" points="245.79 310.55 309.72 179.49 228.18 58.59 82.71 68.77 18.78 199.83 100.33 320.73 245.79 310.55"/><polygon class="cls-36" points="248.74 310.32 310.99 176.82 226.5 56.16 79.76 69 17.51 202.5 102 323.16 248.74 310.32"/><polygon class="cls-37" points="251.7 310.03 312.22 174.11 224.77 53.74 76.8 69.29 16.28 205.21 103.73 325.58 251.7 310.03"/><polygon class="cls-38" points="254.69 309.68 313.42 171.34 222.97 51.32 73.81 69.64 15.08 207.97 105.53 328 254.69 309.68"/><polygon class="cls-39" points="257.71 309.28 314.58 168.53 221.12 48.91 70.79 70.03 13.92 210.79 107.38 330.41 257.71 309.28"/><polygon class="cls-40" points="260.75 308.83 315.7 165.67 219.2 46.51 67.75 70.49 12.8 213.65 109.3 332.81 260.75 308.83"/><polygon class="cls-41" points="263.81 308.31 316.79 162.76 217.22 44.11 64.69 71.01 11.71 216.56 111.28 335.21 263.81 308.31"/><polygon class="cls-42" points="266.89 307.74 317.83 159.81 215.19 41.73 61.61 71.58 10.67 219.51 113.31 337.59 266.89 307.74"/><polygon class="cls-43" points="269.99 307.1 318.83 156.8 213.09 39.36 58.51 72.22 9.67 222.52 115.42 339.96 269.99 307.1"/><polygon class="cls-44" points="273.12 306.4 319.79 153.75 210.92 37.01 55.38 72.91 8.71 225.57 117.58 342.31 273.12 306.4"/><polygon class="cls-45" points="276.26 305.65 320.7 150.65 208.69 34.66 52.24 73.67 7.8 228.67 119.81 344.65 276.26 305.65"/><polygon class="cls-46" points="279.42 304.83 321.57 147.51 206.4 32.34 49.08 74.49 6.93 231.81 122.1 346.98 279.42 304.83"/><polygon class="cls-47" points="282.59 303.94 322.39 144.31 204.05 30.03 45.91 75.38 6.11 235.01 124.45 349.29 282.59 303.94"/><polygon class="cls-48" points="285.78 302.99 323.17 141.07 201.63 27.74 42.72 76.33 5.33 238.25 126.87 351.58 285.78 302.99"/><polygon class="cls-49" points="288.99 301.98 323.89 137.79 199.15 25.47 39.51 77.34 4.61 241.53 129.35 353.85 288.99 301.98"/><polygon class="cls-50" points="292.21 300.89 324.56 134.46 196.6 23.22 36.29 78.42 3.94 244.86 131.9 356.1 292.21 300.89"/><polygon class="cls-51" points="295.45 299.75 325.19 131.08 193.99 21 33.05 79.57 3.31 248.24 134.51 358.32 295.45 299.75"/><polygon class="cls-52" points="298.69 298.53 325.75 127.66 191.31 18.8 29.81 80.79 2.75 251.66 137.19 360.52 298.69 298.53"/><polygon class="cls-53" points="301.95 297.24 326.27 124.2 188.57 16.62 26.55 82.08 2.23 255.12 139.93 362.7 301.95 297.24"/><polygon class="cls-54" points="305.21 295.88 326.73 120.69 185.76 14.47 23.29 83.44 1.77 258.63 142.74 364.85 305.21 295.88"/><polygon class="cls-55" points="308.49 294.45 327.13 117.14 182.89 12.35 20.01 84.86 1.38 262.18 145.61 366.97 308.49 294.45"/><polygon class="cls-56" points="311.77 292.95 327.47 113.55 179.95 10.26 16.73 86.36 1.03 265.77 148.55 369.06 311.77 292.95"/><polygon class="cls-57" points="315.06 291.38 327.75 109.92 176.94 8.19 13.44 87.94 0.75 269.4 151.56 371.13 315.06 291.38"/><polygon class="cls-58" points="318.35 289.74 327.97 106.24 173.87 6.17 10.15 89.58 0.53 273.08 154.63 373.15 318.35 289.74"/><polygon class="cls-59" points="321.65 288.01 328.13 102.53 170.73 4.17 6.85 91.31 0.37 276.8 157.77 375.15 321.65 288.01"/><polygon class="cls-60" points="324.95 286.22 328.22 98.77 167.52 2.21 3.55 93.1 0.28 280.55 160.98 377.11 324.95 286.22"/><polygon class="cls-61" points="328.25 284.35 328.25 94.97 164.25 0.29 0.25 94.97 0.25 284.35 164.25 379.03 328.25 284.35"/></g></g></svg>